<svg width="212" height="34" viewBox="0 0 212 34" fill="none" xmlns="http://www.w3.org/2000/svg">
<path d="M34.9817 4.69011C34.5794 3.32929 33.7443 2.13588 32.6025 1.28989C31.4607 0.443901 30.0741 -0.00878171 28.6518 0.000129075C27.0034 0.00159664 25.4152 0.618058 24.1994 1.72833C22.9835 2.8386 22.228 4.36238 22.0813 6.00011H18.0212C17.8725 4.36066 17.1145 2.83596 15.896 1.7257C14.6776 0.615447 13.0869 -7.28398e-05 11.4367 0.000129075C10.0163 -0.00682558 8.63205 0.446811 7.49256 1.2927C6.35306 2.1386 5.51999 3.33094 5.11883 4.69011L0.0842111 21.426C0.0290586 21.6124 0.000705446 21.8057 0 22V24C0.00318469 26.6516 1.0607 29.1936 2.94052 31.0683C4.82033 32.943 7.36893 33.9974 10.0271 34C11.9754 33.9967 13.8805 33.4275 15.5098 32.362C17.1391 31.2965 18.4221 29.7808 19.2021 28H20.8984C21.6784 29.7808 22.9614 31.2965 24.5907 32.362C26.22 33.4275 28.1251 33.9967 30.0734 34C32.7319 33.9974 35.2808 32.9427 37.1607 31.0676C39.0406 29.1924 40.0978 26.6499 40.1005 23.998V22C40.1005 21.804 40.0704 21.612 40.0163 21.426L34.9817 4.69011V4.69011ZM10.0271 30C8.4323 29.9979 6.90337 29.3651 5.77546 28.2404C4.64756 27.1157 4.0127 25.5909 4.01005 24C4.01005 23.848 4.04413 23.706 4.05416 23.556C4.16386 22.0496 4.84002 20.6402 5.94723 19.6099C7.05444 18.5797 8.51096 18.0047 10.0251 18.0001C11.6204 18.0001 13.1504 18.6322 14.2784 19.7574C15.4065 20.8826 16.0402 22.4087 16.0402 24V24.018C16.0333 25.6052 15.3971 27.1252 14.2704 28.246C13.1438 29.3668 11.6183 29.9974 10.0271 30V30ZM30.0734 30C28.4822 29.9974 26.9567 29.3668 25.8301 28.246C24.7034 27.1252 24.0672 25.6052 24.0603 24.018V24C24.0602 23.2121 24.2156 22.4319 24.5178 21.7039C24.8199 20.9759 25.2629 20.3144 25.8214 19.7571C26.9492 18.6317 28.4791 17.9993 30.0744 17.9991C31.6697 17.9988 33.1997 18.6307 34.328 19.7557C35.4562 20.8807 36.0902 22.4067 36.0904 23.998C36.0883 25.5892 35.4537 27.1146 34.3257 28.2397C33.1978 29.3649 31.6685 29.9979 30.0734 30V30Z" fill="#01D95A"/>
<path d="M70.0661 20.4218C69.8886 22.8697 68.9801 24.7968 67.3405 26.203C65.7115 27.6093 63.5602 28.3124 60.8869 28.3124C57.9629 28.3124 55.6602 27.3332 53.9789 25.3749C52.3081 23.4062 51.4727 20.7083 51.4727 17.2812V15.8906C51.4727 13.7031 51.859 11.776 52.6318 10.1094C53.4046 8.44269 54.5063 7.16665 55.937 6.28124C57.3781 5.38541 59.0489 4.9375 60.9495 4.9375C63.5811 4.9375 65.701 5.64062 67.3092 7.04686C68.9174 8.45311 69.8468 10.4271 70.0975 12.9687H65.3982C65.2833 11.5 64.8708 10.4375 64.1607 9.78123C63.461 9.11456 62.3906 8.78123 60.9495 8.78123C59.3831 8.78123 58.2083 9.34373 57.4251 10.4687C56.6523 11.5833 56.2555 13.3177 56.2346 15.6718V17.3906C56.2346 19.8489 56.6053 21.6458 57.3468 22.7812C58.0986 23.9166 59.2787 24.4843 60.8869 24.4843C62.3384 24.4843 63.4193 24.1562 64.1294 23.4999C64.8499 22.8333 65.2624 21.8072 65.3669 20.4218H70.0661Z" fill="#01D95A"/>
<path d="M77.2717 12.9375C78.4726 11.5 79.9816 10.7812 81.7987 10.7812C85.4745 10.7812 87.3386 12.9114 87.3908 17.1718V27.9999H82.8638V17.2968C82.8638 16.3281 82.655 15.6145 82.2373 15.1562C81.8195 14.6875 81.1251 14.4531 80.1539 14.4531C78.8277 14.4531 77.8669 14.9635 77.2717 15.9843V27.9999H72.7447V4H77.2717V12.9375Z" fill="#01D95A"/>
<path d="M90.1007 19.3906C90.1007 17.7135 90.4244 16.2187 91.0719 14.9062C91.7193 13.5937 92.6488 12.5781 93.8601 11.8593C95.0819 11.1406 96.4969 10.7812 98.1051 10.7812C100.392 10.7812 102.256 11.4791 103.697 12.875C105.149 14.2708 105.958 16.1666 106.125 18.5624L106.157 19.7187C106.157 22.3124 105.431 24.3958 103.979 25.9687C102.528 27.5312 100.58 28.3124 98.1365 28.3124C95.6928 28.3124 93.74 27.5312 92.278 25.9687C90.8265 24.4062 90.1007 22.2812 90.1007 19.5937V19.3906ZM94.6277 19.7187C94.6277 21.3229 94.9305 22.552 95.5362 23.4062C96.1419 24.2499 97.0086 24.6718 98.1365 24.6718C99.233 24.6718 100.089 24.2551 100.705 23.4218C101.322 22.5781 101.63 21.2343 101.63 19.3906C101.63 17.8177 101.322 16.5989 100.705 15.7343C100.089 14.8698 99.2225 14.4375 98.1051 14.4375C96.9982 14.4375 96.1419 14.8698 95.5362 15.7343C94.9305 16.5885 94.6277 17.9166 94.6277 19.7187Z" fill="#01D95A"/>
<path d="M123.685 21.8593L125.909 11.0937H130.28L125.956 27.9999H122.165L118.954 17.3593L115.743 27.9999H111.968L107.645 11.0937H112.015L114.224 21.8437L117.325 11.0937H120.599L123.685 21.8593Z" fill="#01D95A"/>
<path d="M140.164 17.8593C137.584 17.1197 135.705 16.2135 134.525 15.1406C133.355 14.0573 132.77 12.7239 132.77 11.1406C132.77 9.34894 133.485 7.86978 134.916 6.70311C136.357 5.52604 138.227 4.9375 140.524 4.9375C142.09 4.9375 143.484 5.23958 144.706 5.84374C145.939 6.44791 146.889 7.28124 147.557 8.34373C148.236 9.40623 148.575 10.5677 148.575 11.8281H145.552C145.552 10.4531 145.114 9.37498 144.236 8.59373C143.359 7.80207 142.122 7.40624 140.524 7.40624C139.041 7.40624 137.882 7.73436 137.046 8.39061C136.221 9.03644 135.809 9.93748 135.809 11.0937C135.809 12.0208 136.201 12.8073 136.984 13.4531C137.777 14.0885 139.119 14.6718 141.01 15.2031C142.91 15.7343 144.393 16.3229 145.458 16.9687C146.534 17.6041 147.327 18.3489 147.839 19.2031C148.361 20.0572 148.622 21.0624 148.622 22.2187C148.622 24.0624 147.902 25.5416 146.461 26.6562C145.02 27.7603 143.093 28.3124 140.681 28.3124C139.114 28.3124 137.652 28.0155 136.295 27.4218C134.937 26.8176 133.888 25.9947 133.146 24.953C132.415 23.9114 132.05 22.7291 132.05 21.4062H135.073C135.073 22.7812 135.579 23.8697 136.592 24.6718C137.616 25.4635 138.978 25.8593 140.681 25.8593C142.268 25.8593 143.484 25.5364 144.33 24.8905C145.176 24.2447 145.599 23.3645 145.599 22.2499C145.599 21.1354 145.208 20.276 144.424 19.6718C143.641 19.0572 142.221 18.4531 140.164 17.8593Z" fill="#01D95A"/>
<path d="M158.835 25.953C159.869 25.953 160.773 25.6405 161.545 25.0155C162.318 24.3905 162.746 23.6093 162.83 22.6718H165.571C165.519 23.6406 165.185 24.5624 164.569 25.4374C163.952 26.3124 163.127 27.0103 162.094 27.5312C161.07 28.052 159.984 28.3124 158.835 28.3124C156.528 28.3124 154.69 27.5468 153.322 26.0155C151.964 24.4739 151.285 22.3697 151.285 19.7031V19.2187C151.285 17.5729 151.588 16.1093 152.194 14.8281C152.8 13.5468 153.666 12.5521 154.794 11.8437C155.932 11.1354 157.274 10.7812 158.82 10.7812C160.72 10.7812 162.297 11.3489 163.55 12.4843C164.814 13.6198 165.488 15.0937 165.571 16.9062H162.83C162.746 15.8125 162.329 14.9166 161.577 14.2187C160.835 13.5104 159.916 13.1562 158.82 13.1562C157.347 13.1562 156.204 13.6875 155.389 14.75C154.585 15.802 154.183 17.3281 154.183 19.3281V19.8749C154.183 21.8228 154.585 23.3228 155.389 24.3749C156.193 25.427 157.342 25.953 158.835 25.953Z" fill="#01D95A"/>
<path d="M168.062 19.3906C168.062 17.7343 168.385 16.2447 169.033 14.9218C169.691 13.5989 170.599 12.5781 171.758 11.8593C172.928 11.1406 174.26 10.7812 175.753 10.7812C178.061 10.7812 179.925 11.5781 181.345 13.1718C182.776 14.7656 183.491 16.8854 183.491 19.5312V19.7343C183.491 21.3801 183.172 22.8593 182.535 24.1718C181.909 25.4739 181.006 26.4895 179.826 27.2187C178.656 27.9478 177.309 28.3124 175.784 28.3124C173.487 28.3124 171.623 27.5155 170.192 25.9218C168.772 24.328 168.062 22.2187 168.062 19.5937V19.3906ZM170.975 19.7343C170.975 21.6093 171.409 23.1145 172.275 24.2499C173.153 25.3853 174.322 25.953 175.784 25.953C177.257 25.953 178.426 25.3801 179.293 24.2343C180.16 23.0781 180.593 21.4635 180.593 19.3906C180.593 17.5364 180.149 16.0364 179.262 14.8906C178.384 13.7343 177.215 13.1562 175.753 13.1562C174.322 13.1562 173.168 13.7239 172.291 14.8593C171.414 15.9947 170.975 17.6197 170.975 19.7343Z" fill="#01D95A"/>
<path d="M197.589 26.328C196.461 27.651 194.806 28.3124 192.623 28.3124C190.817 28.3124 189.438 27.7916 188.488 26.7499C187.548 25.6978 187.073 24.1458 187.062 22.0937V11.0937H189.96V22.0156C189.96 24.578 191.005 25.8593 193.093 25.8593C195.307 25.8593 196.78 25.0364 197.511 23.3906V11.0937H200.408V27.9999H197.651L197.589 26.328Z" fill="#01D95A"/>
<path d="M208.757 6.99999V11.0937H211.922V13.3281H208.757V23.8124C208.757 24.4895 208.898 24.9999 209.18 25.3437C209.462 25.677 209.943 25.8437 210.621 25.8437C210.956 25.8437 211.415 25.7812 212 25.6562V27.9999C211.238 28.2082 210.496 28.3124 209.776 28.3124C208.481 28.3124 207.504 27.9218 206.846 27.1405C206.189 26.3593 205.86 25.2499 205.86 23.8124V13.3281H202.774V11.0937H205.86V6.99999H208.757Z" fill="#01D95A"/>
</svg>
