<svg width="24" height="24" viewBox="0 0 24 24" fill="none" xmlns="http://www.w3.org/2000/svg">
<path d="M14.6726 19.0013C14.5018 19.0018 14.3331 18.9688 14.1788 18.9048C14.0245 18.8407 13.8886 18.7473 13.781 18.6313L8.26003 12.6313C8.09191 12.4523 8 12.2279 8 11.9963C8 11.7646 8.09191 11.5402 8.26003 11.3613L13.9753 5.36125C14.1694 5.15704 14.4482 5.02861 14.7504 5.00423C15.0527 4.97985 15.3536 5.06151 15.5871 5.23125C15.8205 5.40099 15.9673 5.6449 15.9952 5.90933C16.023 6.17375 15.9297 6.43704 15.7357 6.64125L10.6262 12.0013L15.5642 17.3613C15.704 17.508 15.7928 17.6868 15.8201 17.8763C15.8474 18.0659 15.812 18.2583 15.7182 18.4308C15.6244 18.6034 15.4761 18.7488 15.2908 18.8499C15.1055 18.9509 14.891 19.0035 14.6726 19.0013Z" fill="white"/>
</svg>
