<svg width="24" height="24" viewBox="0 0 24 24" fill="none" xmlns="http://www.w3.org/2000/svg">
<path d="M19.447 6.20711C19.2463 5.56673 18.8299 5.00512 18.2604 4.60701C17.6909 4.20889 16.9994 3.99587 16.29 4.00006C15.4679 4.00075 14.6758 4.29085 14.0694 4.81333C13.463 5.33581 13.0861 6.05288 13.013 6.82358H10.988C10.9139 6.05207 10.5358 5.33457 9.9281 4.8121C9.32042 4.28962 8.52707 3.99997 7.704 4.00006C6.99558 3.99679 6.30521 4.21026 5.73689 4.60833C5.16857 5.0064 4.75308 5.5675 4.553 6.20711L2.042 14.0828C2.01449 14.1706 2.00035 14.2615 2 14.353V15.2941C2.00159 16.5419 2.52902 17.7381 3.46657 18.6204C4.40413 19.5026 5.67523 19.9988 7.001 20C7.97268 19.9984 8.92285 19.7306 9.73547 19.2292C10.5481 18.7278 11.188 18.0145 11.577 17.1765H12.423C12.812 18.0145 13.4519 18.7278 14.2645 19.2292C15.0771 19.7306 16.0273 19.9984 16.999 20C18.3249 19.9988 19.5962 19.5025 20.5338 18.62C21.4714 17.7376 21.9987 16.5411 22 15.2932V14.353C22 14.2607 21.985 14.1704 21.958 14.0828L19.447 6.20711V6.20711ZM7.001 18.1177C6.20558 18.1167 5.44303 17.8189 4.88049 17.2896C4.31796 16.7604 4.00132 16.0428 4 15.2941C4 15.2226 4.017 15.1558 4.022 15.0852C4.07671 14.3763 4.41394 13.713 4.96616 13.2282C5.51838 12.7434 6.24482 12.4728 7 12.4706C7.79565 12.4706 8.55871 12.7681 9.12132 13.2976C9.68393 13.8271 10 14.5453 10 15.2941V15.3026C9.99657 16.0495 9.67925 16.7648 9.11734 17.2922C8.55543 17.8197 7.7946 18.1164 7.001 18.1177V18.1177ZM16.999 18.1177C16.2054 18.1164 15.4446 17.8197 14.8827 17.2922C14.3208 16.7648 14.0034 16.0495 14 15.3026V15.2941C13.9999 14.9233 14.0775 14.5562 14.2282 14.2136C14.3789 13.871 14.5998 13.5597 14.8783 13.2975C15.4408 12.7679 16.2039 12.4703 16.9995 12.4701C17.7951 12.47 18.5583 12.7674 19.121 13.2968C19.6837 13.8262 19.9999 14.5444 20 15.2932C19.9989 16.042 19.6824 16.7598 19.1199 17.2893C18.5573 17.8188 17.7946 18.1167 16.999 18.1177V18.1177Z" fill="#2D3047"/>
</svg>
