<svg width="24" height="24" viewBox="0 0 24 24" fill="none" xmlns="http://www.w3.org/2000/svg">
<path d="M21.7074 11.2948L12.7052 2.29252C12.6126 2.19979 12.5027 2.12622 12.3817 2.07603C12.2607 2.02584 12.131 2 12 2C11.869 2 11.7393 2.02584 11.6183 2.07603C11.4972 2.12622 11.3873 2.19979 11.2948 2.29252L2.29252 11.2948C2.19979 11.3873 2.12622 11.4972 2.07603 11.6183C2.02584 11.7393 2 11.869 2 12C2 12.131 2.02584 12.2607 2.07603 12.3817C2.12622 12.5027 2.19979 12.6126 2.29252 12.7052L11.2948 21.7074C11.6849 22.0975 12.3151 22.0975 12.7052 21.7074L21.7074 12.7052C21.8002 12.6126 21.8737 12.5027 21.9239 12.3817C21.9741 12.2607 21.9999 12.131 21.9999 12C21.9999 11.869 21.9741 11.7393 21.9239 11.6183C21.8737 11.4972 21.8002 11.3873 21.7074 11.2948ZM13.9955 14.5056V12.005H9.99446V15.0057H7.99396V11.0047C7.99396 10.4546 8.44407 10.0045 8.99421 10.0045H13.9955V7.50384L17.4964 11.0047L13.9955 14.5056Z" fill="white"/>
</svg>
