<svg width="24" height="24" viewBox="0 0 24 24" fill="none" xmlns="http://www.w3.org/2000/svg">
<path d="M21.5503 11.2561L3.23585 2.08802C3.09231 2.01615 2.93107 1.98735 2.77156 2.0051C2.61205 2.02284 2.46106 2.08637 2.33678 2.18804C2.21809 2.28763 2.1295 2.4184 2.08097 2.56564C2.03244 2.71287 2.02589 2.87075 2.06206 3.0215L4.26812 11.1645H13.6834V12.8314H4.26812L2.02876 20.9493C1.99482 21.0752 1.99086 21.2074 2.0172 21.3351C2.04353 21.4628 2.09944 21.5825 2.18041 21.6847C2.26138 21.7868 2.36516 21.8685 2.48341 21.9232C2.60165 21.9779 2.73106 22.004 2.86124 21.9995C2.99155 21.9987 3.11987 21.9673 3.23585 21.9078L21.5503 12.7397C21.6866 12.6698 21.8011 12.5635 21.881 12.4326C21.9609 12.3017 22.0032 12.1513 22.0032 11.9979C22.0032 11.8445 21.9609 11.6941 21.881 11.5632C21.8011 11.4323 21.6866 11.3261 21.5503 11.2561V11.2561Z" fill="white"/>
</svg>
