<svg width="24" height="24" viewBox="0 0 24 24" fill="none" xmlns="http://www.w3.org/2000/svg">
<path d="M22 5.93007C21.2645 6.24734 20.4641 6.47567 19.6397 6.56461C20.4956 6.0561 21.1366 5.25274 21.4424 4.30526C20.6392 4.78306 19.7593 5.11811 18.8417 5.29553C18.4582 4.88554 17.9944 4.55893 17.4792 4.33605C16.9639 4.11316 16.4083 3.99877 15.8469 4.00001C13.5755 4.00001 11.7488 5.84114 11.7488 8.10048C11.7488 8.41775 11.7873 8.73502 11.8498 9.04027C8.44874 8.86241 5.41546 7.2376 3.39887 4.74992C3.03143 5.37753 2.83887 6.09213 2.84124 6.81938C2.84124 8.24229 3.56472 9.49695 4.66795 10.2348C4.0178 10.2092 3.38287 10.0305 2.81481 9.71327V9.76374C2.81481 11.7563 4.22329 13.4075 6.10047 13.7873C5.74801 13.8788 5.38543 13.9257 5.02127 13.9267C4.75448 13.9267 4.5021 13.9003 4.24733 13.8642C4.76649 15.489 6.27833 16.6692 8.0786 16.7076C6.67011 17.8109 4.9059 18.4598 2.99027 18.4598C2.64656 18.4598 2.32929 18.4478 2 18.4093C3.81709 19.5751 5.97308 20.2481 8.29492 20.2481C15.8325 20.2481 19.957 14.0036 19.957 8.58359C19.957 8.40573 19.957 8.22787 19.945 8.05C20.7429 7.46594 21.4424 6.74247 22 5.93007Z" fill="white"/>
</svg>
