<svg width="24" height="24" viewBox="0 0 24 24" fill="none" xmlns="http://www.w3.org/2000/svg">
<path fill-rule="evenodd" clip-rule="evenodd" d="M12.9723 1.40273C12.4353 0.865757 11.5647 0.865757 11.0277 1.40273C10.4908 1.9397 10.4908 2.8103 11.0277 3.34727L18.3055 10.625H2.375C1.61561 10.625 1 11.2406 1 12C1 12.7594 1.61561 13.375 2.375 13.375H18.3055L11.0277 20.6527C10.4908 21.1897 10.4908 22.0603 11.0277 22.5973C11.5647 23.1342 12.4353 23.1342 12.9723 22.5973L22.5963 12.9732C22.5996 12.9699 22.6029 12.9666 22.6062 12.9633C22.8687 12.6959 23 12.348 23 12C23 11.8136 22.9629 11.6358 22.8957 11.4737C22.8301 11.3152 22.7336 11.1665 22.6062 11.0367C22.6029 11.0334 22.5996 11.0301 22.5963 11.0268L12.9723 1.40273Z" fill="white"/>
</svg>
