<svg width="361" height="162" viewBox="0 0 361 162" fill="none" xmlns="http://www.w3.org/2000/svg">
<g filter="url(#filter0_d)">
<path d="M7.5 32.5H353.5V123C353.5 124.933 351.933 126.5 350 126.5H11C9.067 126.5 7.5 124.933 7.5 123V32.5Z" fill="white" stroke="#E8E8E8"/>
<path d="M28.5781 51.5234H25.0938V61H22.75V51.5234H19.3125V49.625H28.5781V51.5234ZM31.9766 53.4688C32.5755 52.75 33.3281 52.3906 34.2344 52.3906C36.0677 52.3906 36.9974 53.4557 37.0234 55.5859V61H34.7656V55.6484C34.7656 55.1641 34.6615 54.8073 34.4531 54.5781C34.2448 54.3438 33.8984 54.2266 33.4141 54.2266C32.7526 54.2266 32.2734 54.4818 31.9766 54.9922V61H29.7188V49H31.9766V53.4688ZM42.6172 61.1562C41.3776 61.1562 40.3672 60.776 39.5859 60.0156C38.8099 59.2552 38.4219 58.2422 38.4219 56.9766V56.7578C38.4219 55.9089 38.5859 55.151 38.9141 54.4844C39.2422 53.8125 39.7057 53.2969 40.3047 52.9375C40.9089 52.5729 41.5964 52.3906 42.3672 52.3906C43.5234 52.3906 44.4323 52.7552 45.0938 53.4844C45.7604 54.2135 46.0938 55.2474 46.0938 56.5859V57.5078H40.7109C40.7839 58.0599 41.0026 58.5026 41.3672 58.8359C41.737 59.1693 42.2031 59.3359 42.7656 59.3359C43.6354 59.3359 44.3151 59.0208 44.8047 58.3906L45.9141 59.6328C45.5755 60.112 45.1172 60.487 44.5391 60.7578C43.9609 61.0234 43.3203 61.1562 42.6172 61.1562ZM42.3594 54.2188C41.9115 54.2188 41.5469 54.3698 41.2656 54.6719C40.9896 54.974 40.8125 55.4062 40.7344 55.9688H43.875V55.7891C43.8646 55.2891 43.7292 54.9036 43.4688 54.6328C43.2083 54.3568 42.8385 54.2188 42.3594 54.2188ZM54.5781 49.625L57.5 57.875L60.4062 49.625H63.4844V61H61.1328V57.8906L61.3672 52.5234L58.2969 61H56.6875L53.625 52.5312L53.8594 57.8906V61H51.5156V49.625H54.5781ZM70.2812 61C70.1771 60.7969 70.1016 60.5443 70.0547 60.2422C69.5078 60.8516 68.7969 61.1562 67.9219 61.1562C67.0938 61.1562 66.4062 60.9167 65.8594 60.4375C65.3177 59.9583 65.0469 59.3542 65.0469 58.625C65.0469 57.7292 65.3776 57.0417 66.0391 56.5625C66.7057 56.0833 67.6667 55.8411 68.9219 55.8359H69.9609V55.3516C69.9609 54.9609 69.8594 54.6484 69.6562 54.4141C69.4583 54.1797 69.1432 54.0625 68.7109 54.0625C68.3307 54.0625 68.0312 54.1536 67.8125 54.3359C67.599 54.5182 67.4922 54.7682 67.4922 55.0859H65.2344C65.2344 54.5964 65.3854 54.1432 65.6875 53.7266C65.9896 53.3099 66.4167 52.9844 66.9688 52.75C67.5208 52.5104 68.1406 52.3906 68.8281 52.3906C69.8698 52.3906 70.6953 52.6536 71.3047 53.1797C71.9193 53.7005 72.2266 54.4349 72.2266 55.3828V59.0469C72.2318 59.849 72.3438 60.4557 72.5625 60.8672V61H70.2812ZM68.4141 59.4297C68.7474 59.4297 69.0547 59.3568 69.3359 59.2109C69.6172 59.0599 69.8255 58.8594 69.9609 58.6094V57.1562H69.1172C67.987 57.1562 67.3854 57.5469 67.3125 58.3281L67.3047 58.4609C67.3047 58.7422 67.4036 58.974 67.6016 59.1562C67.7995 59.3385 68.0703 59.4297 68.4141 59.4297ZM73.6328 56.7109C73.6328 55.4141 73.9401 54.3698 74.5547 53.5781C75.1745 52.7865 76.0078 52.3906 77.0547 52.3906C77.9818 52.3906 78.7031 52.7083 79.2188 53.3438L79.3125 52.5469H81.3594V60.7188C81.3594 61.4583 81.1901 62.1016 80.8516 62.6484C80.5182 63.1953 80.0469 63.612 79.4375 63.8984C78.8281 64.1849 78.1146 64.3281 77.2969 64.3281C76.6771 64.3281 76.0729 64.2031 75.4844 63.9531C74.8958 63.7083 74.4505 63.3906 74.1484 63L75.1484 61.625C75.7109 62.2552 76.3932 62.5703 77.1953 62.5703C77.7943 62.5703 78.2604 62.4089 78.5938 62.0859C78.9271 61.7682 79.0938 61.3151 79.0938 60.7266V60.2734C78.5729 60.862 77.888 61.1562 77.0391 61.1562C76.0234 61.1562 75.2005 60.7604 74.5703 59.9688C73.9453 59.1719 73.6328 58.1172 73.6328 56.8047V56.7109ZM75.8906 56.875C75.8906 57.6406 76.0443 58.2422 76.3516 58.6797C76.6589 59.112 77.0807 59.3281 77.6172 59.3281C78.3047 59.3281 78.7969 59.0703 79.0938 58.5547V55C78.7917 54.4844 78.3047 54.2266 77.6328 54.2266C77.0911 54.2266 76.6641 54.4479 76.3516 54.8906C76.0443 55.3333 75.8906 55.9948 75.8906 56.875ZM85.4844 61H83.2188V52.5469H85.4844V61ZM83.0859 50.3594C83.0859 50.0208 83.1979 49.7422 83.4219 49.5234C83.651 49.3047 83.9609 49.1953 84.3516 49.1953C84.737 49.1953 85.0443 49.3047 85.2734 49.5234C85.5026 49.7422 85.6172 50.0208 85.6172 50.3594C85.6172 50.7031 85.5 50.9844 85.2656 51.2031C85.0365 51.4219 84.7318 51.5312 84.3516 51.5312C83.9714 51.5312 83.6641 51.4219 83.4297 51.2031C83.2005 50.9844 83.0859 50.7031 83.0859 50.3594ZM90.8672 59.3359C91.2839 59.3359 91.6224 59.2214 91.8828 58.9922C92.1432 58.763 92.2786 58.4583 92.2891 58.0781H94.4062C94.401 58.651 94.2448 59.1771 93.9375 59.6562C93.6302 60.1302 93.2083 60.5 92.6719 60.7656C92.1406 61.026 91.5521 61.1562 90.9062 61.1562C89.6979 61.1562 88.7448 60.7734 88.0469 60.0078C87.349 59.237 87 58.1745 87 56.8203V56.6719C87 55.3698 87.3464 54.3307 88.0391 53.5547C88.7318 52.7786 89.6823 52.3906 90.8906 52.3906C91.9479 52.3906 92.7943 52.6927 93.4297 53.2969C94.0703 53.8958 94.3958 54.6953 94.4062 55.6953H92.2891C92.2786 55.2578 92.1432 54.9036 91.8828 54.6328C91.6224 54.3568 91.2786 54.2188 90.8516 54.2188C90.3255 54.2188 89.9271 54.4115 89.6562 54.7969C89.3906 55.1771 89.2578 55.7969 89.2578 56.6562V56.8906C89.2578 57.7604 89.3906 58.3854 89.6562 58.7656C89.9219 59.1458 90.3255 59.3359 90.8672 59.3359ZM105.727 58.0156C105.727 57.5729 105.57 57.2344 105.258 57C104.945 56.7604 104.383 56.5104 103.57 56.25C102.758 55.9844 102.115 55.724 101.641 55.4688C100.349 54.7708 99.7031 53.8307 99.7031 52.6484C99.7031 52.0339 99.875 51.487 100.219 51.0078C100.568 50.5234 101.065 50.1458 101.711 49.875C102.362 49.6042 103.091 49.4688 103.898 49.4688C104.711 49.4688 105.435 49.6172 106.07 49.9141C106.706 50.2057 107.198 50.6198 107.547 51.1562C107.901 51.6927 108.078 52.3021 108.078 52.9844H105.734C105.734 52.4635 105.57 52.0599 105.242 51.7734C104.914 51.4818 104.453 51.3359 103.859 51.3359C103.286 51.3359 102.841 51.4583 102.523 51.7031C102.206 51.9427 102.047 52.2604 102.047 52.6562C102.047 53.026 102.232 53.3359 102.602 53.5859C102.977 53.8359 103.526 54.0703 104.25 54.2891C105.583 54.6901 106.555 55.1875 107.164 55.7812C107.773 56.375 108.078 57.1146 108.078 58C108.078 58.9844 107.706 59.7578 106.961 60.3203C106.216 60.8776 105.214 61.1562 103.953 61.1562C103.078 61.1562 102.281 60.9974 101.562 60.6797C100.844 60.3568 100.294 59.9167 99.9141 59.3594C99.5391 58.8021 99.3516 58.1562 99.3516 57.4219H101.703C101.703 58.6771 102.453 59.3047 103.953 59.3047C104.51 59.3047 104.945 59.1927 105.258 58.9688C105.57 58.7396 105.727 58.4219 105.727 58.0156ZM111.727 53.4688C112.326 52.75 113.078 52.3906 113.984 52.3906C115.818 52.3906 116.747 53.4557 116.773 55.5859V61H114.516V55.6484C114.516 55.1641 114.411 54.8073 114.203 54.5781C113.995 54.3438 113.648 54.2266 113.164 54.2266C112.503 54.2266 112.023 54.4818 111.727 54.9922V61H109.469V49H111.727V53.4688ZM123.227 54.6641C122.919 54.6224 122.648 54.6016 122.414 54.6016C121.56 54.6016 121 54.8906 120.734 55.4688V61H118.477V52.5469H120.609L120.672 53.5547C121.125 52.7786 121.753 52.3906 122.555 52.3906C122.805 52.3906 123.039 52.4245 123.258 52.4922L123.227 54.6641ZM123.688 56.6953C123.688 55.8568 123.849 55.1094 124.172 54.4531C124.495 53.7969 124.958 53.2891 125.562 52.9297C126.172 52.5703 126.878 52.3906 127.68 52.3906C128.82 52.3906 129.75 52.7396 130.469 53.4375C131.193 54.1354 131.596 55.0833 131.68 56.2812L131.695 56.8594C131.695 58.1562 131.333 59.1979 130.609 59.9844C129.885 60.7656 128.914 61.1562 127.695 61.1562C126.477 61.1562 125.503 60.7656 124.773 59.9844C124.049 59.2031 123.688 58.1406 123.688 56.7969V56.6953ZM125.945 56.8594C125.945 57.6615 126.096 58.276 126.398 58.7031C126.701 59.125 127.133 59.3359 127.695 59.3359C128.242 59.3359 128.669 59.1276 128.977 58.7109C129.284 58.2891 129.438 57.6172 129.438 56.6953C129.438 55.9089 129.284 55.2995 128.977 54.8672C128.669 54.4349 128.237 54.2188 127.68 54.2188C127.128 54.2188 126.701 54.4349 126.398 54.8672C126.096 55.2943 125.945 55.9583 125.945 56.8594ZM132.734 56.6953C132.734 55.8568 132.896 55.1094 133.219 54.4531C133.542 53.7969 134.005 53.2891 134.609 52.9297C135.219 52.5703 135.924 52.3906 136.727 52.3906C137.867 52.3906 138.797 52.7396 139.516 53.4375C140.24 54.1354 140.643 55.0833 140.727 56.2812L140.742 56.8594C140.742 58.1562 140.38 59.1979 139.656 59.9844C138.932 60.7656 137.961 61.1562 136.742 61.1562C135.523 61.1562 134.549 60.7656 133.82 59.9844C133.096 59.2031 132.734 58.1406 132.734 56.7969V56.6953ZM134.992 56.8594C134.992 57.6615 135.143 58.276 135.445 58.7031C135.747 59.125 136.18 59.3359 136.742 59.3359C137.289 59.3359 137.716 59.1276 138.023 58.7109C138.331 58.2891 138.484 57.6172 138.484 56.6953C138.484 55.9089 138.331 55.2995 138.023 54.8672C137.716 54.4349 137.284 54.2188 136.727 54.2188C136.174 54.2188 135.747 54.4349 135.445 54.8672C135.143 55.2943 134.992 55.9583 134.992 56.8594ZM144.25 52.5469L144.32 53.4922C144.919 52.7578 145.729 52.3906 146.75 52.3906C147.839 52.3906 148.586 52.8203 148.992 53.6797C149.586 52.8203 150.432 52.3906 151.531 52.3906C152.448 52.3906 153.13 52.6589 153.578 53.1953C154.026 53.7266 154.25 54.5286 154.25 55.6016V61H151.984V55.6094C151.984 55.1302 151.891 54.7812 151.703 54.5625C151.516 54.3385 151.185 54.2266 150.711 54.2266C150.034 54.2266 149.565 54.5495 149.305 55.1953L149.312 61H147.055V55.6172C147.055 55.1276 146.958 54.7734 146.766 54.5547C146.573 54.3359 146.245 54.2266 145.781 54.2266C145.141 54.2266 144.677 54.4922 144.391 55.0234V61H142.133V52.5469H144.25Z" fill="#2D3047"/>
<path d="M298.461 58.0312C298.461 57.5885 298.32 57.224 298.039 56.9375C297.758 56.6458 297.289 56.3854 296.633 56.1562C295.977 55.9219 295.466 55.7057 295.102 55.5078C293.888 54.8568 293.281 53.8932 293.281 52.6172C293.281 51.7526 293.544 51.0417 294.07 50.4844C294.596 49.9271 295.31 49.5964 296.211 49.4922V47.7891H297.461V49.5078C298.367 49.638 299.068 50.0234 299.562 50.6641C300.057 51.2995 300.305 52.1276 300.305 53.1484H298.414C298.414 52.4922 298.266 51.9766 297.969 51.6016C297.677 51.2214 297.279 51.0312 296.773 51.0312C296.273 51.0312 295.883 51.1667 295.602 51.4375C295.32 51.7083 295.18 52.0964 295.18 52.6016C295.18 53.0547 295.318 53.4193 295.594 53.6953C295.875 53.9661 296.349 54.224 297.016 54.4688C297.682 54.7135 298.206 54.9401 298.586 55.1484C298.966 55.3568 299.286 55.5964 299.547 55.8672C299.807 56.1328 300.008 56.4401 300.148 56.7891C300.289 57.138 300.359 57.5469 300.359 58.0156C300.359 58.8958 300.089 59.6094 299.547 60.1562C299.01 60.7031 298.26 61.026 297.297 61.125V62.6484H296.055V61.1328C295.023 61.0182 294.229 60.6484 293.672 60.0234C293.12 59.3984 292.844 58.5703 292.844 57.5391H294.742C294.742 58.1953 294.906 58.7031 295.234 59.0625C295.568 59.4219 296.036 59.6016 296.641 59.6016C297.234 59.6016 297.685 59.4583 297.992 59.1719C298.305 58.8854 298.461 58.5052 298.461 58.0312ZM307.148 61H305.258V51.8672L302.469 52.8203V51.2188L306.906 49.5859H307.148V61ZM318.75 61H311.102V59.6953L314.891 55.5625C315.438 54.9531 315.826 54.4453 316.055 54.0391C316.289 53.6276 316.406 53.2161 316.406 52.8047C316.406 52.263 316.253 51.8255 315.945 51.4922C315.643 51.1589 315.234 50.9922 314.719 50.9922C314.104 50.9922 313.628 51.1797 313.289 51.5547C312.951 51.9297 312.781 52.4427 312.781 53.0938H310.883C310.883 52.401 311.039 51.7786 311.352 51.2266C311.669 50.6693 312.12 50.237 312.703 49.9297C313.292 49.6224 313.969 49.4688 314.734 49.4688C315.839 49.4688 316.708 49.7474 317.344 50.3047C317.984 50.8568 318.305 51.6224 318.305 52.6016C318.305 53.1693 318.143 53.7656 317.82 54.3906C317.503 55.0104 316.979 55.7161 316.25 56.5078L313.469 59.4844H318.75V61ZM321.5 59C321.854 59 322.128 59.1016 322.32 59.3047C322.513 59.5026 322.609 59.7526 322.609 60.0547C322.609 60.3516 322.513 60.599 322.32 60.7969C322.128 60.9896 321.854 61.0859 321.5 61.0859C321.161 61.0859 320.893 60.9896 320.695 60.7969C320.497 60.6042 320.398 60.3568 320.398 60.0547C320.398 59.7526 320.495 59.5026 320.688 59.3047C320.88 59.1016 321.151 59 321.5 59ZM330.047 56.2422C329.411 56.9141 328.669 57.25 327.82 57.25C326.82 57.25 326.023 56.901 325.43 56.2031C324.836 55.5 324.539 54.5781 324.539 53.4375C324.539 52.6875 324.69 52.0078 324.992 51.3984C325.294 50.7891 325.724 50.3151 326.281 49.9766C326.839 49.638 327.484 49.4688 328.219 49.4688C329.365 49.4688 330.273 49.8958 330.945 50.75C331.617 51.6042 331.953 52.7474 331.953 54.1797V54.7109C331.953 56.763 331.49 58.3281 330.562 59.4062C329.635 60.4844 328.253 61.0312 326.414 61.0469H326.188V59.4766H326.461C327.581 59.4609 328.44 59.1927 329.039 58.6719C329.638 58.1458 329.974 57.3359 330.047 56.2422ZM328.219 55.7656C328.599 55.7656 328.956 55.6562 329.289 55.4375C329.622 55.2188 329.88 54.9167 330.062 54.5312V53.7891C330.062 52.9505 329.891 52.276 329.547 51.7656C329.203 51.2552 328.758 51 328.211 51C327.664 51 327.227 51.2266 326.898 51.6797C326.576 52.1276 326.414 52.6953 326.414 53.3828C326.414 54.0964 326.578 54.6719 326.906 55.1094C327.234 55.5469 327.672 55.7656 328.219 55.7656ZM339.141 56.2422C338.505 56.9141 337.763 57.25 336.914 57.25C335.914 57.25 335.117 56.901 334.523 56.2031C333.93 55.5 333.633 54.5781 333.633 53.4375C333.633 52.6875 333.784 52.0078 334.086 51.3984C334.388 50.7891 334.818 50.3151 335.375 49.9766C335.932 49.638 336.578 49.4688 337.312 49.4688C338.458 49.4688 339.367 49.8958 340.039 50.75C340.711 51.6042 341.047 52.7474 341.047 54.1797V54.7109C341.047 56.763 340.583 58.3281 339.656 59.4062C338.729 60.4844 337.346 61.0312 335.508 61.0469H335.281V59.4766H335.555C336.674 59.4609 337.534 59.1927 338.133 58.6719C338.732 58.1458 339.068 57.3359 339.141 56.2422ZM337.312 55.7656C337.693 55.7656 338.049 55.6562 338.383 55.4375C338.716 55.2188 338.974 54.9167 339.156 54.5312V53.7891C339.156 52.9505 338.984 52.276 338.641 51.7656C338.297 51.2552 337.852 51 337.305 51C336.758 51 336.32 51.2266 335.992 51.6797C335.669 52.1276 335.508 52.6953 335.508 53.3828C335.508 54.0964 335.672 54.6719 336 55.1094C336.328 55.5469 336.766 55.7656 337.312 55.7656Z" fill="#2D3047"/>
<path opacity="0.7" d="M27.4766 84.8418C27.3535 85.8945 26.9639 86.708 26.3076 87.2822C25.6559 87.8519 24.7878 88.1367 23.7031 88.1367C22.5273 88.1367 21.584 87.7152 20.873 86.8721C20.1667 86.029 19.8135 84.901 19.8135 83.4883V82.5312C19.8135 81.6061 19.9775 80.7926 20.3057 80.0908C20.6383 79.389 21.1077 78.8512 21.7139 78.4775C22.32 78.0993 23.0218 77.9102 23.8193 77.9102C24.8766 77.9102 25.7243 78.2064 26.3623 78.7988C27.0003 79.3867 27.3717 80.2025 27.4766 81.2461H26.1572C26.0433 80.4531 25.7949 79.8789 25.4121 79.5234C25.0339 79.168 24.5029 78.9902 23.8193 78.9902C22.9808 78.9902 22.3223 79.3001 21.8438 79.9199C21.3698 80.5397 21.1328 81.4215 21.1328 82.5654V83.5293C21.1328 84.6094 21.3584 85.4684 21.8096 86.1064C22.2607 86.7445 22.8919 87.0635 23.7031 87.0635C24.4323 87.0635 24.9906 86.8994 25.3779 86.5713C25.7699 86.2386 26.0296 85.6621 26.1572 84.8418H27.4766ZM32.6514 81.7383C32.46 81.7064 32.2526 81.6904 32.0293 81.6904C31.1999 81.6904 30.637 82.0436 30.3408 82.75V88H29.0762V80.6035H30.3066L30.3271 81.458C30.7419 80.7972 31.3298 80.4668 32.0908 80.4668C32.3369 80.4668 32.5238 80.4987 32.6514 80.5625V81.7383ZM36.7529 88.1367C35.7503 88.1367 34.9346 87.8086 34.3057 87.1523C33.6768 86.4915 33.3623 85.6097 33.3623 84.5068V84.2744C33.3623 83.5407 33.5013 82.8867 33.7793 82.3125C34.0618 81.7337 34.4538 81.2826 34.9551 80.959C35.4609 80.6309 36.0078 80.4668 36.5957 80.4668C37.5573 80.4668 38.3047 80.7835 38.8379 81.417C39.3711 82.0505 39.6377 82.9574 39.6377 84.1377V84.6641H34.627C34.6452 85.3932 34.8571 85.9834 35.2627 86.4346C35.6729 86.8812 36.1924 87.1045 36.8213 87.1045C37.2679 87.1045 37.6462 87.0133 37.9561 86.8311C38.266 86.6488 38.5371 86.4072 38.7695 86.1064L39.542 86.708C38.9222 87.6605 37.9925 88.1367 36.7529 88.1367ZM36.5957 81.5059C36.0853 81.5059 35.6569 81.6927 35.3105 82.0664C34.9642 82.4355 34.75 82.9551 34.668 83.625H38.373V83.5293C38.3366 82.8867 38.1634 82.39 37.8535 82.0391C37.5436 81.6836 37.1243 81.5059 36.5957 81.5059ZM45.6738 88C45.6009 87.8542 45.5417 87.5944 45.4961 87.2207C44.9082 87.8314 44.2064 88.1367 43.3906 88.1367C42.6615 88.1367 42.0622 87.9316 41.5928 87.5215C41.1279 87.1068 40.8955 86.5827 40.8955 85.9492C40.8955 85.179 41.1872 84.582 41.7705 84.1582C42.3584 83.7298 43.1833 83.5156 44.2451 83.5156H45.4756V82.9346C45.4756 82.4925 45.3434 82.1416 45.0791 81.8818C44.8148 81.6175 44.4251 81.4854 43.9102 81.4854C43.459 81.4854 43.0807 81.5993 42.7754 81.8271C42.4701 82.055 42.3174 82.3307 42.3174 82.6543H41.0459C41.0459 82.2852 41.1758 81.9297 41.4355 81.5879C41.6999 81.2415 42.0553 80.9681 42.502 80.7676C42.9531 80.5671 43.4476 80.4668 43.9854 80.4668C44.8376 80.4668 45.5052 80.681 45.9883 81.1094C46.4714 81.5332 46.722 82.1188 46.7402 82.8662V86.2705C46.7402 86.9495 46.8268 87.4896 47 87.8906V88H45.6738ZM43.5752 87.0361C43.9717 87.0361 44.3477 86.9336 44.7031 86.7285C45.0586 86.5234 45.3161 86.2568 45.4756 85.9287V84.4111H44.4844C42.9349 84.4111 42.1602 84.8646 42.1602 85.7715C42.1602 86.168 42.2923 86.4779 42.5566 86.7012C42.821 86.9245 43.1605 87.0361 43.5752 87.0361ZM49.9121 80.6035L49.9463 81.4238C50.4886 80.7858 51.2201 80.4668 52.1406 80.4668C53.1751 80.4668 53.8792 80.8633 54.2529 81.6562C54.499 81.3008 54.818 81.0137 55.21 80.7949C55.6064 80.5762 56.0736 80.4668 56.6113 80.4668C58.2337 80.4668 59.0586 81.3258 59.0859 83.0439V88H57.8213V83.1191C57.8213 82.5905 57.7005 82.1963 57.459 81.9365C57.2174 81.6722 56.8118 81.54 56.2422 81.54C55.7728 81.54 55.3831 81.6813 55.0732 81.9639C54.7633 82.2419 54.5833 82.6178 54.5332 83.0918V88H53.2617V83.1533C53.2617 82.0778 52.7354 81.54 51.6826 81.54C50.8532 81.54 50.2858 81.8932 49.9805 82.5996V88H48.7158V80.6035H49.9121ZM63.4199 86.1475L65.1426 80.6035H66.4961L63.5225 89.1416C63.0622 90.3721 62.3307 90.9873 61.3281 90.9873L61.0889 90.9668L60.6172 90.8779V89.8525L60.959 89.8799C61.3874 89.8799 61.7201 89.7933 61.957 89.6201C62.1986 89.4469 62.3968 89.1302 62.5518 88.6699L62.832 87.918L60.1934 80.6035H61.5742L63.4199 86.1475ZM70.8027 84.2402C70.8027 83.0872 71.0693 82.1712 71.6025 81.4922C72.1357 80.8086 72.8421 80.4668 73.7217 80.4668C74.624 80.4668 75.3281 80.7858 75.834 81.4238L75.8955 80.6035H77.0508V87.8223C77.0508 88.7793 76.766 89.5335 76.1963 90.085C75.6312 90.6364 74.8701 90.9121 73.9131 90.9121C73.3799 90.9121 72.8581 90.7982 72.3477 90.5703C71.8372 90.3424 71.4476 90.0303 71.1787 89.6338L71.835 88.875C72.3773 89.5449 73.0404 89.8799 73.8242 89.8799C74.4395 89.8799 74.918 89.7067 75.2598 89.3604C75.6061 89.014 75.7793 88.5264 75.7793 87.8975V87.2617C75.2734 87.8451 74.583 88.1367 73.708 88.1367C72.8421 88.1367 72.1403 87.7881 71.6025 87.0908C71.0693 86.3936 70.8027 85.4434 70.8027 84.2402ZM72.0742 84.3838C72.0742 85.2178 72.2451 85.874 72.5869 86.3525C72.9287 86.8265 73.4072 87.0635 74.0225 87.0635C74.82 87.0635 75.4056 86.7012 75.7793 85.9766V82.5996C75.3919 81.8932 74.8109 81.54 74.0361 81.54C73.4209 81.54 72.9401 81.7793 72.5938 82.2578C72.2474 82.7363 72.0742 83.445 72.0742 84.3838ZM78.6299 84.2334C78.6299 83.5088 78.7712 82.8571 79.0537 82.2783C79.3408 81.6995 79.7373 81.2529 80.2432 80.9385C80.7536 80.624 81.3346 80.4668 81.9863 80.4668C82.9935 80.4668 83.807 80.8154 84.4268 81.5127C85.0511 82.21 85.3633 83.1374 85.3633 84.2949V84.3838C85.3633 85.1038 85.2243 85.751 84.9463 86.3252C84.6729 86.8949 84.2786 87.3392 83.7637 87.6582C83.2533 87.9772 82.6654 88.1367 82 88.1367C80.9974 88.1367 80.1839 87.7881 79.5596 87.0908C78.9398 86.3936 78.6299 85.4707 78.6299 84.3223V84.2334ZM79.9014 84.3838C79.9014 85.2041 80.0905 85.8626 80.4688 86.3594C80.8516 86.8561 81.362 87.1045 82 87.1045C82.6426 87.1045 83.153 86.8538 83.5312 86.3525C83.9095 85.8467 84.0986 85.1403 84.0986 84.2334C84.0986 83.4222 83.9049 82.766 83.5176 82.2646C83.1348 81.7588 82.6243 81.5059 81.9863 81.5059C81.362 81.5059 80.8584 81.7542 80.4756 82.251C80.0928 82.7477 79.9014 83.4587 79.9014 84.3838ZM91.5156 88C91.4427 87.8542 91.3835 87.5944 91.3379 87.2207C90.75 87.8314 90.0482 88.1367 89.2324 88.1367C88.5033 88.1367 87.904 87.9316 87.4346 87.5215C86.9697 87.1068 86.7373 86.5827 86.7373 85.9492C86.7373 85.179 87.029 84.582 87.6123 84.1582C88.2002 83.7298 89.0251 83.5156 90.0869 83.5156H91.3174V82.9346C91.3174 82.4925 91.1852 82.1416 90.9209 81.8818C90.6566 81.6175 90.2669 81.4854 89.752 81.4854C89.3008 81.4854 88.9225 81.5993 88.6172 81.8271C88.3118 82.055 88.1592 82.3307 88.1592 82.6543H86.8877C86.8877 82.2852 87.0176 81.9297 87.2773 81.5879C87.5417 81.2415 87.8971 80.9681 88.3438 80.7676C88.7949 80.5671 89.2894 80.4668 89.8271 80.4668C90.6794 80.4668 91.347 80.681 91.8301 81.1094C92.3132 81.5332 92.5638 82.1188 92.582 82.8662V86.2705C92.582 86.9495 92.6686 87.4896 92.8418 87.8906V88H91.5156ZM89.417 87.0361C89.8135 87.0361 90.1895 86.9336 90.5449 86.7285C90.9004 86.5234 91.1579 86.2568 91.3174 85.9287V84.4111H90.3262C88.7767 84.4111 88.002 84.8646 88.002 85.7715C88.002 86.168 88.1341 86.4779 88.3984 86.7012C88.6628 86.9245 89.0023 87.0361 89.417 87.0361ZM96.2803 78.8125V80.6035H97.6611V81.5811H96.2803V86.168C96.2803 86.4642 96.3418 86.6875 96.4648 86.8379C96.5879 86.9837 96.7975 87.0566 97.0938 87.0566C97.2396 87.0566 97.4401 87.0293 97.6953 86.9746V88C97.3626 88.0911 97.0391 88.1367 96.7246 88.1367C96.1595 88.1367 95.7334 87.9658 95.4463 87.624C95.1592 87.2822 95.0156 86.7969 95.0156 86.168V81.5811H93.6689V80.6035H95.0156V78.8125H96.2803ZM105.584 87.1045C106.035 87.1045 106.429 86.9678 106.767 86.6943C107.104 86.4209 107.291 86.0791 107.327 85.6689H108.523C108.501 86.0928 108.355 86.4961 108.086 86.8789C107.817 87.2617 107.457 87.5671 107.006 87.7949C106.559 88.0228 106.085 88.1367 105.584 88.1367C104.577 88.1367 103.775 87.8018 103.178 87.1318C102.585 86.4574 102.289 85.5368 102.289 84.3701V84.1582C102.289 83.4382 102.421 82.7979 102.686 82.2373C102.95 81.6768 103.328 81.2415 103.82 80.9316C104.317 80.6217 104.903 80.4668 105.577 80.4668C106.407 80.4668 107.095 80.7152 107.642 81.2119C108.193 81.7087 108.487 82.3535 108.523 83.1465H107.327C107.291 82.668 107.108 82.276 106.78 81.9707C106.457 81.6608 106.056 81.5059 105.577 81.5059C104.935 81.5059 104.436 81.7383 104.08 82.2031C103.729 82.6634 103.554 83.3311 103.554 84.2061V84.4453C103.554 85.2975 103.729 85.9538 104.08 86.4141C104.431 86.8743 104.932 87.1045 105.584 87.1045ZM111.21 81.499C111.771 80.8109 112.5 80.4668 113.397 80.4668C114.961 80.4668 115.749 81.3486 115.763 83.1123V88H114.498V83.1055C114.493 82.5723 114.37 82.1781 114.129 81.9229C113.892 81.6676 113.521 81.54 113.015 81.54C112.604 81.54 112.244 81.6494 111.935 81.8682C111.625 82.0869 111.383 82.374 111.21 82.7295V88H109.945V77.5H111.21V81.499ZM120.726 88.1367C119.723 88.1367 118.907 87.8086 118.278 87.1523C117.649 86.4915 117.335 85.6097 117.335 84.5068V84.2744C117.335 83.5407 117.474 82.8867 117.752 82.3125C118.035 81.7337 118.426 81.2826 118.928 80.959C119.434 80.6309 119.98 80.4668 120.568 80.4668C121.53 80.4668 122.277 80.7835 122.811 81.417C123.344 82.0505 123.61 82.9574 123.61 84.1377V84.6641H118.6C118.618 85.3932 118.83 85.9834 119.235 86.4346C119.646 86.8812 120.165 87.1045 120.794 87.1045C121.241 87.1045 121.619 87.0133 121.929 86.8311C122.239 86.6488 122.51 86.4072 122.742 86.1064L123.515 86.708C122.895 87.6605 121.965 88.1367 120.726 88.1367ZM120.568 81.5059C120.058 81.5059 119.63 81.6927 119.283 82.0664C118.937 82.4355 118.723 82.9551 118.641 83.625H122.346V83.5293C122.309 82.8867 122.136 82.39 121.826 82.0391C121.516 81.6836 121.097 81.5059 120.568 81.5059ZM128.149 88.1367C127.147 88.1367 126.331 87.8086 125.702 87.1523C125.073 86.4915 124.759 85.6097 124.759 84.5068V84.2744C124.759 83.5407 124.898 82.8867 125.176 82.3125C125.458 81.7337 125.85 81.2826 126.352 80.959C126.857 80.6309 127.404 80.4668 127.992 80.4668C128.954 80.4668 129.701 80.7835 130.234 81.417C130.768 82.0505 131.034 82.9574 131.034 84.1377V84.6641H126.023C126.042 85.3932 126.254 85.9834 126.659 86.4346C127.069 86.8812 127.589 87.1045 128.218 87.1045C128.664 87.1045 129.043 87.0133 129.353 86.8311C129.662 86.6488 129.934 86.4072 130.166 86.1064L130.938 86.708C130.319 87.6605 129.389 88.1367 128.149 88.1367ZM127.992 81.5059C127.482 81.5059 127.053 81.6927 126.707 82.0664C126.361 82.4355 126.146 82.9551 126.064 83.625H129.77V83.5293C129.733 82.8867 129.56 82.39 129.25 82.0391C128.94 81.6836 128.521 81.5059 127.992 81.5059ZM136.811 86.0381C136.811 85.6963 136.681 85.432 136.421 85.2451C136.166 85.0537 135.717 84.8896 135.074 84.7529C134.436 84.6162 133.928 84.4521 133.55 84.2607C133.176 84.0693 132.898 83.8415 132.716 83.5771C132.538 83.3128 132.449 82.9984 132.449 82.6338C132.449 82.0277 132.704 81.515 133.215 81.0957C133.73 80.6764 134.386 80.4668 135.184 80.4668C136.022 80.4668 136.701 80.6833 137.221 81.1162C137.745 81.5492 138.007 82.1029 138.007 82.7773H136.735C136.735 82.431 136.587 82.1325 136.291 81.8818C135.999 81.6312 135.63 81.5059 135.184 81.5059C134.723 81.5059 134.363 81.6061 134.104 81.8066C133.844 82.0072 133.714 82.2692 133.714 82.5928C133.714 82.8981 133.835 83.1283 134.076 83.2832C134.318 83.4382 134.753 83.5863 135.382 83.7275C136.015 83.8688 136.528 84.0374 136.92 84.2334C137.312 84.4294 137.601 84.6663 137.788 84.9443C137.979 85.2178 138.075 85.5527 138.075 85.9492C138.075 86.61 137.811 87.141 137.282 87.542C136.754 87.9385 136.068 88.1367 135.225 88.1367C134.632 88.1367 134.108 88.0319 133.652 87.8223C133.197 87.6126 132.839 87.321 132.579 86.9473C132.324 86.569 132.196 86.1611 132.196 85.7236H133.461C133.484 86.1475 133.652 86.4847 133.967 86.7354C134.286 86.9814 134.705 87.1045 135.225 87.1045C135.703 87.1045 136.086 87.0088 136.373 86.8174C136.665 86.6214 136.811 86.3617 136.811 86.0381ZM142.792 88.1367C141.789 88.1367 140.974 87.8086 140.345 87.1523C139.716 86.4915 139.401 85.6097 139.401 84.5068V84.2744C139.401 83.5407 139.54 82.8867 139.818 82.3125C140.101 81.7337 140.493 81.2826 140.994 80.959C141.5 80.6309 142.047 80.4668 142.635 80.4668C143.596 80.4668 144.344 80.7835 144.877 81.417C145.41 82.0505 145.677 82.9574 145.677 84.1377V84.6641H140.666C140.684 85.3932 140.896 85.9834 141.302 86.4346C141.712 86.8812 142.231 87.1045 142.86 87.1045C143.307 87.1045 143.685 87.0133 143.995 86.8311C144.305 86.6488 144.576 86.4072 144.809 86.1064L145.581 86.708C144.961 87.6605 144.032 88.1367 142.792 88.1367ZM142.635 81.5059C142.124 81.5059 141.696 81.6927 141.35 82.0664C141.003 82.4355 140.789 82.9551 140.707 83.625H144.412V83.5293C144.376 82.8867 144.202 82.39 143.893 82.0391C143.583 81.6836 143.163 81.5059 142.635 81.5059ZM147.105 89.9824L146.388 89.4902C146.816 88.8932 147.039 88.278 147.058 87.6445V86.5029H148.295V87.4941C148.295 87.9544 148.181 88.4147 147.953 88.875C147.73 89.3353 147.447 89.7044 147.105 89.9824ZM153.791 88V81.5811H152.622V80.6035H153.791V79.9746C153.791 79.1497 154.026 78.5072 154.495 78.0469C154.969 77.5866 155.637 77.3564 156.498 77.3564C157.008 77.3564 157.653 77.4954 158.433 77.7734L158.221 78.8398C157.651 78.612 157.109 78.498 156.594 78.498C156.051 78.498 155.66 78.6211 155.418 78.8672C155.181 79.1087 155.062 79.4733 155.062 79.9609V80.6035H156.573V81.5811H155.062V88H153.791ZM159.062 88H157.79V80.6035H159.062V88ZM164.188 88.1367C163.186 88.1367 162.37 87.8086 161.741 87.1523C161.112 86.4915 160.798 85.6097 160.798 84.5068V84.2744C160.798 83.5407 160.937 82.8867 161.215 82.3125C161.497 81.7337 161.889 81.2826 162.391 80.959C162.896 80.6309 163.443 80.4668 164.031 80.4668C164.993 80.4668 165.74 80.7835 166.273 81.417C166.807 82.0505 167.073 82.9574 167.073 84.1377V84.6641H162.062C162.081 85.3932 162.293 85.9834 162.698 86.4346C163.108 86.8812 163.628 87.1045 164.257 87.1045C164.703 87.1045 165.082 87.0133 165.392 86.8311C165.701 86.6488 165.973 86.4072 166.205 86.1064L166.978 86.708C166.358 87.6605 165.428 88.1367 164.188 88.1367ZM164.031 81.5059C163.521 81.5059 163.092 81.6927 162.746 82.0664C162.4 82.4355 162.186 82.9551 162.104 83.625H165.809V83.5293C165.772 82.8867 165.599 82.39 165.289 82.0391C164.979 81.6836 164.56 81.5059 164.031 81.5059ZM169.917 88H168.652V77.5H169.917V88ZM171.64 84.2402C171.64 83.1055 171.909 82.194 172.446 81.5059C172.984 80.8132 173.688 80.4668 174.559 80.4668C175.424 80.4668 176.11 80.763 176.616 81.3555V77.5H177.881V88H176.719L176.657 87.207C176.151 87.8268 175.447 88.1367 174.545 88.1367C173.688 88.1367 172.989 87.7858 172.446 87.084C171.909 86.3822 171.64 85.4661 171.64 84.3359V84.2402ZM172.904 84.3838C172.904 85.2223 173.077 85.8786 173.424 86.3525C173.77 86.8265 174.249 87.0635 174.859 87.0635C175.661 87.0635 176.247 86.7035 176.616 85.9834V82.5859C176.238 81.8887 175.657 81.54 174.873 81.54C174.253 81.54 173.77 81.7793 173.424 82.2578C173.077 82.7363 172.904 83.445 172.904 84.3838ZM184.512 80.6035L184.546 81.4238C185.088 80.7858 185.82 80.4668 186.74 80.4668C187.775 80.4668 188.479 80.8633 188.853 81.6562C189.099 81.3008 189.418 81.0137 189.81 80.7949C190.206 80.5762 190.673 80.4668 191.211 80.4668C192.833 80.4668 193.658 81.3258 193.686 83.0439V88H192.421V83.1191C192.421 82.5905 192.3 82.1963 192.059 81.9365C191.817 81.6722 191.411 81.54 190.842 81.54C190.372 81.54 189.983 81.6813 189.673 81.9639C189.363 82.2419 189.183 82.6178 189.133 83.0918V88H187.861V83.1533C187.861 82.0778 187.335 81.54 186.282 81.54C185.453 81.54 184.885 81.8932 184.58 82.5996V88H183.315V80.6035H184.512ZM200.166 87.2686C199.674 87.8473 198.951 88.1367 197.999 88.1367C197.211 88.1367 196.609 87.9089 196.194 87.4531C195.784 86.9928 195.577 86.3138 195.572 85.416V80.6035H196.837V85.3818C196.837 86.5029 197.293 87.0635 198.204 87.0635C199.17 87.0635 199.813 86.7035 200.132 85.9834V80.6035H201.396V88H200.193L200.166 87.2686ZM207.631 86.0381C207.631 85.6963 207.501 85.432 207.241 85.2451C206.986 85.0537 206.537 84.8896 205.895 84.7529C205.257 84.6162 204.748 84.4521 204.37 84.2607C203.996 84.0693 203.718 83.8415 203.536 83.5771C203.358 83.3128 203.27 82.9984 203.27 82.6338C203.27 82.0277 203.525 81.515 204.035 81.0957C204.55 80.6764 205.206 80.4668 206.004 80.4668C206.842 80.4668 207.521 80.6833 208.041 81.1162C208.565 81.5492 208.827 82.1029 208.827 82.7773H207.556C207.556 82.431 207.408 82.1325 207.111 81.8818C206.82 81.6312 206.451 81.5059 206.004 81.5059C205.544 81.5059 205.184 81.6061 204.924 81.8066C204.664 82.0072 204.534 82.2692 204.534 82.5928C204.534 82.8981 204.655 83.1283 204.896 83.2832C205.138 83.4382 205.573 83.5863 206.202 83.7275C206.836 83.8688 207.348 84.0374 207.74 84.2334C208.132 84.4294 208.422 84.6663 208.608 84.9443C208.8 85.2178 208.896 85.5527 208.896 85.9492C208.896 86.61 208.631 87.141 208.103 87.542C207.574 87.9385 206.888 88.1367 206.045 88.1367C205.452 88.1367 204.928 88.0319 204.473 87.8223C204.017 87.6126 203.659 87.321 203.399 86.9473C203.144 86.569 203.017 86.1611 203.017 85.7236H204.281C204.304 86.1475 204.473 86.4847 204.787 86.7354C205.106 86.9814 205.525 87.1045 206.045 87.1045C206.523 87.1045 206.906 87.0088 207.193 86.8174C207.485 86.6214 207.631 86.3617 207.631 86.0381ZM211.808 81.499C212.368 80.8109 213.097 80.4668 213.995 80.4668C215.558 80.4668 216.347 81.3486 216.36 83.1123V88H215.096V83.1055C215.091 82.5723 214.968 82.1781 214.727 81.9229C214.49 81.6676 214.118 81.54 213.612 81.54C213.202 81.54 212.842 81.6494 212.532 81.8682C212.222 82.0869 211.981 82.374 211.808 82.7295V88H210.543V77.5H211.808V81.499ZM221.829 81.7383C221.638 81.7064 221.43 81.6904 221.207 81.6904C220.378 81.6904 219.815 82.0436 219.519 82.75V88H218.254V80.6035H219.484L219.505 81.458C219.92 80.7972 220.507 80.4668 221.269 80.4668C221.515 80.4668 221.701 80.4987 221.829 80.5625V81.7383ZM222.526 84.2334C222.526 83.5088 222.668 82.8571 222.95 82.2783C223.237 81.6995 223.634 81.2529 224.14 80.9385C224.65 80.624 225.231 80.4668 225.883 80.4668C226.89 80.4668 227.703 80.8154 228.323 81.5127C228.948 82.21 229.26 83.1374 229.26 84.2949V84.3838C229.26 85.1038 229.121 85.751 228.843 86.3252C228.569 86.8949 228.175 87.3392 227.66 87.6582C227.15 87.9772 226.562 88.1367 225.896 88.1367C224.894 88.1367 224.08 87.7881 223.456 87.0908C222.836 86.3936 222.526 85.4707 222.526 84.3223V84.2334ZM223.798 84.3838C223.798 85.2041 223.987 85.8626 224.365 86.3594C224.748 86.8561 225.258 87.1045 225.896 87.1045C226.539 87.1045 227.049 86.8538 227.428 86.3525C227.806 85.8467 227.995 85.1403 227.995 84.2334C227.995 83.4222 227.801 82.766 227.414 82.2646C227.031 81.7588 226.521 81.5059 225.883 81.5059C225.258 81.5059 224.755 81.7542 224.372 82.251C223.989 82.7477 223.798 83.4587 223.798 84.3838ZM230.511 84.2334C230.511 83.5088 230.652 82.8571 230.935 82.2783C231.222 81.6995 231.618 81.2529 232.124 80.9385C232.634 80.624 233.215 80.4668 233.867 80.4668C234.874 80.4668 235.688 80.8154 236.308 81.5127C236.932 82.21 237.244 83.1374 237.244 84.2949V84.3838C237.244 85.1038 237.105 85.751 236.827 86.3252C236.554 86.8949 236.16 87.3392 235.645 87.6582C235.134 87.9772 234.546 88.1367 233.881 88.1367C232.878 88.1367 232.065 87.7881 231.44 87.0908C230.821 86.3936 230.511 85.4707 230.511 84.3223V84.2334ZM231.782 84.3838C231.782 85.2041 231.971 85.8626 232.35 86.3594C232.732 86.8561 233.243 87.1045 233.881 87.1045C234.523 87.1045 235.034 86.8538 235.412 86.3525C235.79 85.8467 235.979 85.1403 235.979 84.2334C235.979 83.4222 235.786 82.766 235.398 82.2646C235.016 81.7588 234.505 81.5059 233.867 81.5059C233.243 81.5059 232.739 81.7542 232.356 82.251C231.974 82.7477 231.782 83.4587 231.782 84.3838ZM240.02 80.6035L240.054 81.4238C240.596 80.7858 241.327 80.4668 242.248 80.4668C243.283 80.4668 243.987 80.8633 244.36 81.6562C244.606 81.3008 244.925 81.0137 245.317 80.7949C245.714 80.5762 246.181 80.4668 246.719 80.4668C248.341 80.4668 249.166 81.3258 249.193 83.0439V88H247.929V83.1191C247.929 82.5905 247.808 82.1963 247.566 81.9365C247.325 81.6722 246.919 81.54 246.35 81.54C245.88 81.54 245.491 81.6813 245.181 81.9639C244.871 82.2419 244.691 82.6178 244.641 83.0918V88H243.369V83.1533C243.369 82.0778 242.843 81.54 241.79 81.54C240.961 81.54 240.393 81.8932 240.088 82.5996V88H238.823V80.6035H240.02ZM255.414 86.0381C255.414 85.6963 255.284 85.432 255.024 85.2451C254.769 85.0537 254.32 84.8896 253.678 84.7529C253.04 84.6162 252.532 84.4521 252.153 84.2607C251.78 84.0693 251.502 83.8415 251.319 83.5771C251.142 83.3128 251.053 82.9984 251.053 82.6338C251.053 82.0277 251.308 81.515 251.818 81.0957C252.333 80.6764 252.99 80.4668 253.787 80.4668C254.626 80.4668 255.305 80.6833 255.824 81.1162C256.348 81.5492 256.61 82.1029 256.61 82.7773H255.339C255.339 82.431 255.191 82.1325 254.895 81.8818C254.603 81.6312 254.234 81.5059 253.787 81.5059C253.327 81.5059 252.967 81.6061 252.707 81.8066C252.447 82.0072 252.317 82.2692 252.317 82.5928C252.317 82.8981 252.438 83.1283 252.68 83.2832C252.921 83.4382 253.356 83.5863 253.985 83.7275C254.619 83.8688 255.132 84.0374 255.523 84.2334C255.915 84.4294 256.205 84.6663 256.392 84.9443C256.583 85.2178 256.679 85.5527 256.679 85.9492C256.679 86.61 256.414 87.141 255.886 87.542C255.357 87.9385 254.671 88.1367 253.828 88.1367C253.236 88.1367 252.712 88.0319 252.256 87.8223C251.8 87.6126 251.442 87.321 251.183 86.9473C250.927 86.569 250.8 86.1611 250.8 85.7236H252.064C252.087 86.1475 252.256 86.4847 252.57 86.7354C252.889 86.9814 253.309 87.1045 253.828 87.1045C254.307 87.1045 254.689 87.0088 254.977 86.8174C255.268 86.6214 255.414 86.3617 255.414 86.0381ZM258.285 89.9824L257.567 89.4902C257.996 88.8932 258.219 88.278 258.237 87.6445V86.5029H259.475V87.4941C259.475 87.9544 259.361 88.4147 259.133 88.875C258.91 89.3353 258.627 89.7044 258.285 89.9824ZM265.921 88H264.656V77.5H265.921V88ZM271.021 88.1367C270.018 88.1367 269.202 87.8086 268.573 87.1523C267.944 86.4915 267.63 85.6097 267.63 84.5068V84.2744C267.63 83.5407 267.769 82.8867 268.047 82.3125C268.329 81.7337 268.721 81.2826 269.223 80.959C269.729 80.6309 270.275 80.4668 270.863 80.4668C271.825 80.4668 272.572 80.7835 273.105 81.417C273.639 82.0505 273.905 82.9574 273.905 84.1377V84.6641H268.895C268.913 85.3932 269.125 85.9834 269.53 86.4346C269.94 86.8812 270.46 87.1045 271.089 87.1045C271.535 87.1045 271.914 87.0133 272.224 86.8311C272.534 86.6488 272.805 86.4072 273.037 86.1064L273.81 86.708C273.19 87.6605 272.26 88.1367 271.021 88.1367ZM270.863 81.5059C270.353 81.5059 269.924 81.6927 269.578 82.0664C269.232 82.4355 269.018 82.9551 268.936 83.625H272.641V83.5293C272.604 82.8867 272.431 82.39 272.121 82.0391C271.811 81.6836 271.392 81.5059 270.863 81.5059ZM277.091 78.8125V80.6035H278.472V81.5811H277.091V86.168C277.091 86.4642 277.152 86.6875 277.275 86.8379C277.398 86.9837 277.608 87.0566 277.904 87.0566C278.05 87.0566 278.251 87.0293 278.506 86.9746V88C278.173 88.0911 277.85 88.1367 277.535 88.1367C276.97 88.1367 276.544 87.9658 276.257 87.624C275.97 87.2822 275.826 86.7969 275.826 86.168V81.5811H274.479V80.6035H275.826V78.8125H277.091ZM281.671 78.8125V80.6035H283.052V81.5811H281.671V86.168C281.671 86.4642 281.732 86.6875 281.855 86.8379C281.979 86.9837 282.188 87.0566 282.484 87.0566C282.63 87.0566 282.831 87.0293 283.086 86.9746V88C282.753 88.0911 282.43 88.1367 282.115 88.1367C281.55 88.1367 281.124 87.9658 280.837 87.624C280.55 87.2822 280.406 86.7969 280.406 86.168V81.5811H279.06V80.6035H280.406V78.8125H281.671ZM289.102 87.2686C288.609 87.8473 287.887 88.1367 286.935 88.1367C286.146 88.1367 285.545 87.9089 285.13 87.4531C284.72 86.9928 284.512 86.3138 284.508 85.416V80.6035H285.772V85.3818C285.772 86.5029 286.228 87.0635 287.14 87.0635C288.106 87.0635 288.748 86.7035 289.067 85.9834V80.6035H290.332V88H289.129L289.102 87.2686ZM295.227 87.1045C295.678 87.1045 296.072 86.9678 296.409 86.6943C296.746 86.4209 296.933 86.0791 296.97 85.6689H298.166C298.143 86.0928 297.997 86.4961 297.729 86.8789C297.46 87.2617 297.1 87.5671 296.648 87.7949C296.202 88.0228 295.728 88.1367 295.227 88.1367C294.219 88.1367 293.417 87.8018 292.82 87.1318C292.228 86.4574 291.932 85.5368 291.932 84.3701V84.1582C291.932 83.4382 292.064 82.7979 292.328 82.2373C292.592 81.6768 292.971 81.2415 293.463 80.9316C293.96 80.6217 294.545 80.4668 295.22 80.4668C296.049 80.4668 296.737 80.7152 297.284 81.2119C297.836 81.7087 298.13 82.3535 298.166 83.1465H296.97C296.933 82.668 296.751 82.276 296.423 81.9707C296.099 81.6608 295.698 81.5059 295.22 81.5059C294.577 81.5059 294.078 81.7383 293.723 82.2031C293.372 82.6634 293.196 83.3311 293.196 84.2061V84.4453C293.196 85.2975 293.372 85.9538 293.723 86.4141C294.074 86.8743 294.575 87.1045 295.227 87.1045ZM302.657 88.1367C301.655 88.1367 300.839 87.8086 300.21 87.1523C299.581 86.4915 299.267 85.6097 299.267 84.5068V84.2744C299.267 83.5407 299.406 82.8867 299.684 82.3125C299.966 81.7337 300.358 81.2826 300.859 80.959C301.365 80.6309 301.912 80.4668 302.5 80.4668C303.462 80.4668 304.209 80.7835 304.742 81.417C305.275 82.0505 305.542 82.9574 305.542 84.1377V84.6641H300.531C300.549 85.3932 300.761 85.9834 301.167 86.4346C301.577 86.8812 302.097 87.1045 302.726 87.1045C303.172 87.1045 303.55 87.0133 303.86 86.8311C304.17 86.6488 304.441 86.4072 304.674 86.1064L305.446 86.708C304.826 87.6605 303.897 88.1367 302.657 88.1367ZM302.5 81.5059C301.99 81.5059 301.561 81.6927 301.215 82.0664C300.868 82.4355 300.654 82.9551 300.572 83.625H304.277V83.5293C304.241 82.8867 304.068 82.39 303.758 82.0391C303.448 81.6836 303.029 81.5059 302.5 81.5059ZM306.971 89.9824L306.253 89.4902C306.681 88.8932 306.905 88.278 306.923 87.6445V86.5029H308.16V87.4941C308.16 87.9544 308.046 88.4147 307.818 88.875C307.595 89.3353 307.312 89.7044 306.971 89.9824ZM21.6729 98.8125V100.604H23.0537V101.581H21.6729V106.168C21.6729 106.464 21.7344 106.688 21.8574 106.838C21.9805 106.984 22.1901 107.057 22.4863 107.057C22.6322 107.057 22.8327 107.029 23.0879 106.975V108C22.7552 108.091 22.4316 108.137 22.1172 108.137C21.5521 108.137 21.126 107.966 20.8389 107.624C20.5518 107.282 20.4082 106.797 20.4082 106.168V101.581H19.0615V100.604H20.4082V98.8125H21.6729ZM24.0654 104.233C24.0654 103.509 24.2067 102.857 24.4893 102.278C24.7764 101.7 25.1729 101.253 25.6787 100.938C26.1891 100.624 26.7702 100.467 27.4219 100.467C28.429 100.467 29.2425 100.815 29.8623 101.513C30.4867 102.21 30.7988 103.137 30.7988 104.295V104.384C30.7988 105.104 30.6598 105.751 30.3818 106.325C30.1084 106.895 29.7142 107.339 29.1992 107.658C28.6888 107.977 28.1009 108.137 27.4355 108.137C26.4329 108.137 25.6195 107.788 24.9951 107.091C24.3753 106.394 24.0654 105.471 24.0654 104.322V104.233ZM25.3369 104.384C25.3369 105.204 25.526 105.863 25.9043 106.359C26.2871 106.856 26.7975 107.104 27.4355 107.104C28.0781 107.104 28.5885 106.854 28.9668 106.353C29.3451 105.847 29.5342 105.14 29.5342 104.233C29.5342 103.422 29.3405 102.766 28.9531 102.265C28.5703 101.759 28.0599 101.506 27.4219 101.506C26.7975 101.506 26.2939 101.754 25.9111 102.251C25.5283 102.748 25.3369 103.459 25.3369 104.384ZM33.5742 100.604L33.6084 101.424C34.1507 100.786 34.8822 100.467 35.8027 100.467C36.8372 100.467 37.5413 100.863 37.915 101.656C38.1611 101.301 38.4801 101.014 38.8721 100.795C39.2686 100.576 39.7357 100.467 40.2734 100.467C41.8958 100.467 42.7207 101.326 42.748 103.044V108H41.4834V103.119C41.4834 102.59 41.3626 102.196 41.1211 101.937C40.8796 101.672 40.474 101.54 39.9043 101.54C39.4349 101.54 39.0452 101.681 38.7354 101.964C38.4255 102.242 38.2454 102.618 38.1953 103.092V108H36.9238V103.153C36.9238 102.078 36.3975 101.54 35.3447 101.54C34.5153 101.54 33.9479 101.893 33.6426 102.6V108H32.3779V100.604H33.5742ZM49.2285 108C49.1556 107.854 49.0964 107.594 49.0508 107.221C48.4629 107.831 47.7611 108.137 46.9453 108.137C46.2161 108.137 45.6169 107.932 45.1475 107.521C44.6826 107.107 44.4502 106.583 44.4502 105.949C44.4502 105.179 44.7419 104.582 45.3252 104.158C45.9131 103.73 46.738 103.516 47.7998 103.516H49.0303V102.935C49.0303 102.493 48.8981 102.142 48.6338 101.882C48.3695 101.618 47.9798 101.485 47.4648 101.485C47.0137 101.485 46.6354 101.599 46.3301 101.827C46.0247 102.055 45.8721 102.331 45.8721 102.654H44.6006C44.6006 102.285 44.7305 101.93 44.9902 101.588C45.2546 101.242 45.61 100.968 46.0566 100.768C46.5078 100.567 47.0023 100.467 47.54 100.467C48.3923 100.467 49.0599 100.681 49.543 101.109C50.026 101.533 50.2767 102.119 50.2949 102.866V106.271C50.2949 106.95 50.3815 107.49 50.5547 107.891V108H49.2285ZM47.1299 107.036C47.5264 107.036 47.9023 106.934 48.2578 106.729C48.6133 106.523 48.8708 106.257 49.0303 105.929V104.411H48.0391C46.4896 104.411 45.7148 104.865 45.7148 105.771C45.7148 106.168 45.847 106.478 46.1113 106.701C46.3757 106.924 46.7152 107.036 47.1299 107.036ZM53.9932 98.8125V100.604H55.374V101.581H53.9932V106.168C53.9932 106.464 54.0547 106.688 54.1777 106.838C54.3008 106.984 54.5104 107.057 54.8066 107.057C54.9525 107.057 55.153 107.029 55.4082 106.975V108C55.0755 108.091 54.752 108.137 54.4375 108.137C53.8724 108.137 53.4463 107.966 53.1592 107.624C52.8721 107.282 52.7285 106.797 52.7285 106.168V101.581H51.3818V100.604H52.7285V98.8125H53.9932ZM56.3857 104.233C56.3857 103.509 56.527 102.857 56.8096 102.278C57.0967 101.7 57.4932 101.253 57.999 100.938C58.5094 100.624 59.0905 100.467 59.7422 100.467C60.7493 100.467 61.5628 100.815 62.1826 101.513C62.807 102.21 63.1191 103.137 63.1191 104.295V104.384C63.1191 105.104 62.9801 105.751 62.7021 106.325C62.4287 106.895 62.0345 107.339 61.5195 107.658C61.0091 107.977 60.4212 108.137 59.7559 108.137C58.7533 108.137 57.9398 107.788 57.3154 107.091C56.6956 106.394 56.3857 105.471 56.3857 104.322V104.233ZM57.6572 104.384C57.6572 105.204 57.8464 105.863 58.2246 106.359C58.6074 106.856 59.1178 107.104 59.7559 107.104C60.3984 107.104 60.9089 106.854 61.2871 106.353C61.6654 105.847 61.8545 105.14 61.8545 104.233C61.8545 103.422 61.6608 102.766 61.2734 102.265C60.8906 101.759 60.3802 101.506 59.7422 101.506C59.1178 101.506 58.6143 101.754 58.2314 102.251C57.8486 102.748 57.6572 103.459 57.6572 104.384ZM64.6641 109.982L63.9463 109.49C64.3747 108.893 64.598 108.278 64.6162 107.645V106.503H65.8535V107.494C65.8535 107.954 65.7396 108.415 65.5117 108.875C65.2884 109.335 65.0059 109.704 64.6641 109.982ZM70.5908 104.233C70.5908 103.509 70.7321 102.857 71.0146 102.278C71.3018 101.7 71.6982 101.253 72.2041 100.938C72.7145 100.624 73.2956 100.467 73.9473 100.467C74.9544 100.467 75.7679 100.815 76.3877 101.513C77.012 102.21 77.3242 103.137 77.3242 104.295V104.384C77.3242 105.104 77.1852 105.751 76.9072 106.325C76.6338 106.895 76.2396 107.339 75.7246 107.658C75.2142 107.977 74.6263 108.137 73.9609 108.137C72.9583 108.137 72.1449 107.788 71.5205 107.091C70.9007 106.394 70.5908 105.471 70.5908 104.322V104.233ZM71.8623 104.384C71.8623 105.204 72.0514 105.863 72.4297 106.359C72.8125 106.856 73.3229 107.104 73.9609 107.104C74.6035 107.104 75.1139 106.854 75.4922 106.353C75.8704 105.847 76.0596 105.14 76.0596 104.233C76.0596 103.422 75.8659 102.766 75.4785 102.265C75.0957 101.759 74.5853 101.506 73.9473 101.506C73.3229 101.506 72.8193 101.754 72.4365 102.251C72.0537 102.748 71.8623 103.459 71.8623 104.384ZM80.1064 100.604L80.1475 101.533C80.7126 100.822 81.4508 100.467 82.3623 100.467C83.9255 100.467 84.7139 101.349 84.7275 103.112V108H83.4629V103.105C83.4583 102.572 83.3353 102.178 83.0938 101.923C82.8568 101.668 82.4854 101.54 81.9795 101.54C81.5693 101.54 81.2093 101.649 80.8994 101.868C80.5895 102.087 80.348 102.374 80.1748 102.729V108H78.9102V100.604H80.1064ZM88.0088 108H86.7441V100.604H88.0088V108ZM86.6416 98.6416C86.6416 98.4365 86.7031 98.2633 86.8262 98.1221C86.9538 97.9808 87.1406 97.9102 87.3867 97.9102C87.6328 97.9102 87.8197 97.9808 87.9473 98.1221C88.0749 98.2633 88.1387 98.4365 88.1387 98.6416C88.1387 98.8467 88.0749 99.0176 87.9473 99.1543C87.8197 99.291 87.6328 99.3594 87.3867 99.3594C87.1406 99.3594 86.9538 99.291 86.8262 99.1543C86.7031 99.0176 86.6416 98.8467 86.6416 98.6416ZM89.7041 104.233C89.7041 103.509 89.8454 102.857 90.1279 102.278C90.415 101.7 90.8115 101.253 91.3174 100.938C91.8278 100.624 92.4089 100.467 93.0605 100.467C94.0677 100.467 94.8812 100.815 95.501 101.513C96.1253 102.21 96.4375 103.137 96.4375 104.295V104.384C96.4375 105.104 96.2985 105.751 96.0205 106.325C95.7471 106.895 95.3529 107.339 94.8379 107.658C94.3275 107.977 93.7396 108.137 93.0742 108.137C92.0716 108.137 91.2581 107.788 90.6338 107.091C90.014 106.394 89.7041 105.471 89.7041 104.322V104.233ZM90.9756 104.384C90.9756 105.204 91.1647 105.863 91.543 106.359C91.9258 106.856 92.4362 107.104 93.0742 107.104C93.7168 107.104 94.2272 106.854 94.6055 106.353C94.9837 105.847 95.1729 105.14 95.1729 104.233C95.1729 103.422 94.9792 102.766 94.5918 102.265C94.209 101.759 93.6986 101.506 93.0605 101.506C92.4362 101.506 91.9326 101.754 91.5498 102.251C91.167 102.748 90.9756 103.459 90.9756 104.384ZM99.2197 100.604L99.2607 101.533C99.8258 100.822 100.564 100.467 101.476 100.467C103.039 100.467 103.827 101.349 103.841 103.112V108H102.576V103.105C102.572 102.572 102.449 102.178 102.207 101.923C101.97 101.668 101.599 101.54 101.093 101.54C100.683 101.54 100.323 101.649 100.013 101.868C99.7028 102.087 99.4613 102.374 99.2881 102.729V108H98.0234V100.604H99.2197ZM105.707 109.982L104.989 109.49C105.418 108.893 105.641 108.278 105.659 107.645V106.503H106.896V107.494C106.896 107.954 106.783 108.415 106.555 108.875C106.331 109.335 106.049 109.704 105.707 109.982ZM113.158 100.604L113.192 101.424C113.735 100.786 114.466 100.467 115.387 100.467C116.421 100.467 117.125 100.863 117.499 101.656C117.745 101.301 118.064 101.014 118.456 100.795C118.853 100.576 119.32 100.467 119.857 100.467C121.48 100.467 122.305 101.326 122.332 103.044V108H121.067V103.119C121.067 102.59 120.947 102.196 120.705 101.937C120.464 101.672 120.058 101.54 119.488 101.54C119.019 101.54 118.629 101.681 118.319 101.964C118.009 102.242 117.829 102.618 117.779 103.092V108H116.508V103.153C116.508 102.078 115.981 101.54 114.929 101.54C114.099 101.54 113.532 101.893 113.227 102.6V108H111.962V100.604H113.158ZM128.812 108C128.74 107.854 128.68 107.594 128.635 107.221C128.047 107.831 127.345 108.137 126.529 108.137C125.8 108.137 125.201 107.932 124.731 107.521C124.267 107.107 124.034 106.583 124.034 105.949C124.034 105.179 124.326 104.582 124.909 104.158C125.497 103.73 126.322 103.516 127.384 103.516H128.614V102.935C128.614 102.493 128.482 102.142 128.218 101.882C127.953 101.618 127.564 101.485 127.049 101.485C126.598 101.485 126.219 101.599 125.914 101.827C125.609 102.055 125.456 102.331 125.456 102.654H124.185C124.185 102.285 124.314 101.93 124.574 101.588C124.839 101.242 125.194 100.968 125.641 100.768C126.092 100.567 126.586 100.467 127.124 100.467C127.976 100.467 128.644 100.681 129.127 101.109C129.61 101.533 129.861 102.119 129.879 102.866V106.271C129.879 106.95 129.965 107.49 130.139 107.891V108H128.812ZM126.714 107.036C127.11 107.036 127.486 106.934 127.842 106.729C128.197 106.523 128.455 106.257 128.614 105.929V104.411H127.623C126.074 104.411 125.299 104.865 125.299 105.771C125.299 106.168 125.431 106.478 125.695 106.701C125.96 106.924 126.299 107.036 126.714 107.036ZM134.172 106.147L135.895 100.604H137.248L134.274 109.142C133.814 110.372 133.083 110.987 132.08 110.987L131.841 110.967L131.369 110.878V109.853L131.711 109.88C132.139 109.88 132.472 109.793 132.709 109.62C132.951 109.447 133.149 109.13 133.304 108.67L133.584 107.918L130.945 100.604H132.326L134.172 106.147ZM137.938 104.233C137.938 103.509 138.08 102.857 138.362 102.278C138.649 101.7 139.046 101.253 139.552 100.938C140.062 100.624 140.643 100.467 141.295 100.467C142.302 100.467 143.116 100.815 143.735 101.513C144.36 102.21 144.672 103.137 144.672 104.295V104.384C144.672 105.104 144.533 105.751 144.255 106.325C143.981 106.895 143.587 107.339 143.072 107.658C142.562 107.977 141.974 108.137 141.309 108.137C140.306 108.137 139.493 107.788 138.868 107.091C138.248 106.394 137.938 105.471 137.938 104.322V104.233ZM139.21 104.384C139.21 105.204 139.399 105.863 139.777 106.359C140.16 106.856 140.671 107.104 141.309 107.104C141.951 107.104 142.462 106.854 142.84 106.353C143.218 105.847 143.407 105.14 143.407 104.233C143.407 103.422 143.214 102.766 142.826 102.265C142.443 101.759 141.933 101.506 141.295 101.506C140.671 101.506 140.167 101.754 139.784 102.251C139.401 102.748 139.21 103.459 139.21 104.384ZM149.464 105.327C149.464 104.849 149.596 104.409 149.86 104.008C150.129 103.607 150.64 103.14 151.392 102.606C150.95 102.069 150.653 101.636 150.503 101.308C150.353 100.979 150.277 100.654 150.277 100.33C150.277 99.5736 150.501 98.9811 150.947 98.5527C151.394 98.1243 152 97.9102 152.766 97.9102C153.449 97.9102 154.014 98.1107 154.461 98.5117C154.908 98.9082 155.131 99.4095 155.131 100.016C155.131 100.417 155.028 100.788 154.823 101.13C154.623 101.467 154.27 101.823 153.764 102.196L153.032 102.736L155.247 105.382C155.557 104.789 155.712 104.131 155.712 103.406H156.854C156.854 104.568 156.573 105.532 156.013 106.298L157.435 108H155.917L155.254 107.214C154.917 107.515 154.52 107.745 154.064 107.904C153.613 108.059 153.153 108.137 152.684 108.137C151.713 108.137 150.934 107.879 150.346 107.364C149.758 106.849 149.464 106.17 149.464 105.327ZM152.684 107.104C153.354 107.104 153.966 106.849 154.522 106.339L152.096 103.434L151.87 103.598C151.109 104.158 150.729 104.735 150.729 105.327C150.729 105.865 150.902 106.296 151.248 106.619C151.599 106.943 152.077 107.104 152.684 107.104ZM151.542 100.289C151.542 100.727 151.811 101.273 152.349 101.93L153.155 101.362C153.465 101.144 153.677 100.936 153.791 100.74C153.905 100.54 153.962 100.298 153.962 100.016C153.962 99.7103 153.848 99.4574 153.62 99.2568C153.392 99.0518 153.105 98.9492 152.759 98.9492C152.385 98.9492 152.089 99.0768 151.87 99.332C151.651 99.5827 151.542 99.9017 151.542 100.289ZM168.174 104.384C168.174 105.514 167.914 106.423 167.395 107.111C166.875 107.795 166.178 108.137 165.303 108.137C164.368 108.137 163.646 107.806 163.136 107.146L163.074 108H161.912V97.5H163.177V101.417C163.687 100.784 164.391 100.467 165.289 100.467C166.187 100.467 166.891 100.806 167.401 101.485C167.916 102.164 168.174 103.094 168.174 104.274V104.384ZM166.909 104.24C166.909 103.379 166.743 102.714 166.41 102.244C166.077 101.775 165.599 101.54 164.975 101.54C164.141 101.54 163.541 101.927 163.177 102.702V105.901C163.564 106.676 164.168 107.063 164.988 107.063C165.594 107.063 166.066 106.829 166.403 106.359C166.741 105.89 166.909 105.184 166.909 104.24ZM174.34 108C174.267 107.854 174.208 107.594 174.162 107.221C173.574 107.831 172.872 108.137 172.057 108.137C171.327 108.137 170.728 107.932 170.259 107.521C169.794 107.107 169.562 106.583 169.562 105.949C169.562 105.179 169.853 104.582 170.437 104.158C171.024 103.73 171.849 103.516 172.911 103.516H174.142V102.935C174.142 102.493 174.009 102.142 173.745 101.882C173.481 101.618 173.091 101.485 172.576 101.485C172.125 101.485 171.747 101.599 171.441 101.827C171.136 102.055 170.983 102.331 170.983 102.654H169.712C169.712 102.285 169.842 101.93 170.102 101.588C170.366 101.242 170.721 100.968 171.168 100.768C171.619 100.567 172.114 100.467 172.651 100.467C173.504 100.467 174.171 100.681 174.654 101.109C175.137 101.533 175.388 102.119 175.406 102.866V106.271C175.406 106.95 175.493 107.49 175.666 107.891V108H174.34ZM172.241 107.036C172.638 107.036 173.014 106.934 173.369 106.729C173.725 106.523 173.982 106.257 174.142 105.929V104.411H173.15C171.601 104.411 170.826 104.865 170.826 105.771C170.826 106.168 170.958 106.478 171.223 106.701C171.487 106.924 171.826 107.036 172.241 107.036ZM181.695 106.038C181.695 105.696 181.565 105.432 181.306 105.245C181.05 105.054 180.602 104.89 179.959 104.753C179.321 104.616 178.813 104.452 178.435 104.261C178.061 104.069 177.783 103.841 177.601 103.577C177.423 103.313 177.334 102.998 177.334 102.634C177.334 102.028 177.589 101.515 178.1 101.096C178.615 100.676 179.271 100.467 180.068 100.467C180.907 100.467 181.586 100.683 182.105 101.116C182.63 101.549 182.892 102.103 182.892 102.777H181.62C181.62 102.431 181.472 102.132 181.176 101.882C180.884 101.631 180.515 101.506 180.068 101.506C179.608 101.506 179.248 101.606 178.988 101.807C178.729 102.007 178.599 102.269 178.599 102.593C178.599 102.898 178.719 103.128 178.961 103.283C179.202 103.438 179.638 103.586 180.267 103.728C180.9 103.869 181.413 104.037 181.805 104.233C182.197 104.429 182.486 104.666 182.673 104.944C182.864 105.218 182.96 105.553 182.96 105.949C182.96 106.61 182.696 107.141 182.167 107.542C181.638 107.938 180.952 108.137 180.109 108.137C179.517 108.137 178.993 108.032 178.537 107.822C178.081 107.613 177.724 107.321 177.464 106.947C177.209 106.569 177.081 106.161 177.081 105.724H178.346C178.368 106.147 178.537 106.485 178.852 106.735C179.171 106.981 179.59 107.104 180.109 107.104C180.588 107.104 180.971 107.009 181.258 106.817C181.549 106.621 181.695 106.362 181.695 106.038ZM185.981 108H184.717V100.604H185.981V108ZM184.614 98.6416C184.614 98.4365 184.676 98.2633 184.799 98.1221C184.926 97.9808 185.113 97.9102 185.359 97.9102C185.605 97.9102 185.792 97.9808 185.92 98.1221C186.048 98.2633 186.111 98.4365 186.111 98.6416C186.111 98.8467 186.048 99.0176 185.92 99.1543C185.792 99.291 185.605 99.3594 185.359 99.3594C185.113 99.3594 184.926 99.291 184.799 99.1543C184.676 99.0176 184.614 98.8467 184.614 98.6416ZM189.386 108H188.121V97.5H189.386V108ZM201.137 104.384C201.137 105.509 200.879 106.416 200.364 107.104C199.849 107.793 199.152 108.137 198.272 108.137C197.375 108.137 196.668 107.852 196.153 107.282V110.844H194.889V100.604H196.044L196.105 101.424C196.62 100.786 197.336 100.467 198.252 100.467C199.141 100.467 199.842 100.802 200.357 101.472C200.877 102.142 201.137 103.074 201.137 104.268V104.384ZM199.872 104.24C199.872 103.406 199.694 102.748 199.339 102.265C198.983 101.782 198.496 101.54 197.876 101.54C197.11 101.54 196.536 101.88 196.153 102.559V106.093C196.532 106.767 197.11 107.104 197.89 107.104C198.496 107.104 198.977 106.865 199.332 106.387C199.692 105.904 199.872 105.188 199.872 104.24ZM205.819 108.137C204.817 108.137 204.001 107.809 203.372 107.152C202.743 106.492 202.429 105.61 202.429 104.507V104.274C202.429 103.541 202.568 102.887 202.846 102.312C203.128 101.734 203.52 101.283 204.021 100.959C204.527 100.631 205.074 100.467 205.662 100.467C206.624 100.467 207.371 100.784 207.904 101.417C208.438 102.05 208.704 102.957 208.704 104.138V104.664H203.693C203.712 105.393 203.924 105.983 204.329 106.435C204.739 106.881 205.259 107.104 205.888 107.104C206.334 107.104 206.713 107.013 207.022 106.831C207.332 106.649 207.604 106.407 207.836 106.106L208.608 106.708C207.989 107.66 207.059 108.137 205.819 108.137ZM205.662 101.506C205.152 101.506 204.723 101.693 204.377 102.066C204.031 102.436 203.816 102.955 203.734 103.625H207.439V103.529C207.403 102.887 207.23 102.39 206.92 102.039C206.61 101.684 206.191 101.506 205.662 101.506ZM214.48 106.038C214.48 105.696 214.351 105.432 214.091 105.245C213.836 105.054 213.387 104.89 212.744 104.753C212.106 104.616 211.598 104.452 211.22 104.261C210.846 104.069 210.568 103.841 210.386 103.577C210.208 103.313 210.119 102.998 210.119 102.634C210.119 102.028 210.374 101.515 210.885 101.096C211.4 100.676 212.056 100.467 212.854 100.467C213.692 100.467 214.371 100.683 214.891 101.116C215.415 101.549 215.677 102.103 215.677 102.777H214.405C214.405 102.431 214.257 102.132 213.961 101.882C213.669 101.631 213.3 101.506 212.854 101.506C212.393 101.506 212.033 101.606 211.773 101.807C211.514 102.007 211.384 102.269 211.384 102.593C211.384 102.898 211.505 103.128 211.746 103.283C211.988 103.438 212.423 103.586 213.052 103.728C213.685 103.869 214.198 104.037 214.59 104.233C214.982 104.429 215.271 104.666 215.458 104.944C215.649 105.218 215.745 105.553 215.745 105.949C215.745 106.61 215.481 107.141 214.952 107.542C214.424 107.938 213.738 108.137 212.895 108.137C212.302 108.137 211.778 108.032 211.322 107.822C210.867 107.613 210.509 107.321 210.249 106.947C209.994 106.569 209.866 106.161 209.866 105.724H211.131C211.154 106.147 211.322 106.485 211.637 106.735C211.956 106.981 212.375 107.104 212.895 107.104C213.373 107.104 213.756 107.009 214.043 106.817C214.335 106.621 214.48 106.362 214.48 106.038ZM219.108 98.8125V100.604H220.489V101.581H219.108V106.168C219.108 106.464 219.17 106.688 219.293 106.838C219.416 106.984 219.626 107.057 219.922 107.057C220.068 107.057 220.268 107.029 220.523 106.975V108C220.191 108.091 219.867 108.137 219.553 108.137C218.988 108.137 218.562 107.966 218.274 107.624C217.987 107.282 217.844 106.797 217.844 106.168V101.581H216.497V100.604H217.844V98.8125H219.108ZM221.501 104.233C221.501 103.509 221.642 102.857 221.925 102.278C222.212 101.7 222.608 101.253 223.114 100.938C223.625 100.624 224.206 100.467 224.857 100.467C225.865 100.467 226.678 100.815 227.298 101.513C227.922 102.21 228.234 103.137 228.234 104.295V104.384C228.234 105.104 228.095 105.751 227.817 106.325C227.544 106.895 227.15 107.339 226.635 107.658C226.124 107.977 225.536 108.137 224.871 108.137C223.868 108.137 223.055 107.788 222.431 107.091C221.811 106.394 221.501 105.471 221.501 104.322V104.233ZM222.772 104.384C222.772 105.204 222.962 105.863 223.34 106.359C223.723 106.856 224.233 107.104 224.871 107.104C225.514 107.104 226.024 106.854 226.402 106.353C226.781 105.847 226.97 105.14 226.97 104.233C226.97 103.422 226.776 102.766 226.389 102.265C226.006 101.759 225.495 101.506 224.857 101.506C224.233 101.506 223.729 101.754 223.347 102.251C222.964 102.748 222.772 103.459 222.772 104.384ZM237.6 106.038C237.6 105.696 237.47 105.432 237.21 105.245C236.955 105.054 236.506 104.89 235.863 104.753C235.225 104.616 234.717 104.452 234.339 104.261C233.965 104.069 233.687 103.841 233.505 103.577C233.327 103.313 233.238 102.998 233.238 102.634C233.238 102.028 233.493 101.515 234.004 101.096C234.519 100.676 235.175 100.467 235.973 100.467C236.811 100.467 237.49 100.683 238.01 101.116C238.534 101.549 238.796 102.103 238.796 102.777H237.524C237.524 102.431 237.376 102.132 237.08 101.882C236.788 101.631 236.419 101.506 235.973 101.506C235.512 101.506 235.152 101.606 234.893 101.807C234.633 102.007 234.503 102.269 234.503 102.593C234.503 102.898 234.624 103.128 234.865 103.283C235.107 103.438 235.542 103.586 236.171 103.728C236.804 103.869 237.317 104.037 237.709 104.233C238.101 104.429 238.39 104.666 238.577 104.944C238.769 105.218 238.864 105.553 238.864 105.949C238.864 106.61 238.6 107.141 238.071 107.542C237.543 107.938 236.857 108.137 236.014 108.137C235.421 108.137 234.897 108.032 234.441 107.822C233.986 107.613 233.628 107.321 233.368 106.947C233.113 106.569 232.985 106.161 232.985 105.724H234.25C234.273 106.147 234.441 106.485 234.756 106.735C235.075 106.981 235.494 107.104 236.014 107.104C236.492 107.104 236.875 107.009 237.162 106.817C237.454 106.621 237.6 106.362 237.6 106.038ZM245.078 108C245.005 107.854 244.946 107.594 244.9 107.221C244.312 107.831 243.611 108.137 242.795 108.137C242.066 108.137 241.466 107.932 240.997 107.521C240.532 107.107 240.3 106.583 240.3 105.949C240.3 105.179 240.591 104.582 241.175 104.158C241.763 103.73 242.588 103.516 243.649 103.516H244.88V102.935C244.88 102.493 244.748 102.142 244.483 101.882C244.219 101.618 243.829 101.485 243.314 101.485C242.863 101.485 242.485 101.599 242.18 101.827C241.874 102.055 241.722 102.331 241.722 102.654H240.45C240.45 102.285 240.58 101.93 240.84 101.588C241.104 101.242 241.46 100.968 241.906 100.768C242.357 100.567 242.852 100.467 243.39 100.467C244.242 100.467 244.91 100.681 245.393 101.109C245.876 101.533 246.126 102.119 246.145 102.866V106.271C246.145 106.95 246.231 107.49 246.404 107.891V108H245.078ZM242.979 107.036C243.376 107.036 243.752 106.934 244.107 106.729C244.463 106.523 244.72 106.257 244.88 105.929V104.411H243.889C242.339 104.411 241.564 104.865 241.564 105.771C241.564 106.168 241.697 106.478 241.961 106.701C242.225 106.924 242.565 107.036 242.979 107.036ZM252.693 107.269C252.201 107.847 251.479 108.137 250.526 108.137C249.738 108.137 249.136 107.909 248.722 107.453C248.312 106.993 248.104 106.314 248.1 105.416V100.604H249.364V105.382C249.364 106.503 249.82 107.063 250.731 107.063C251.698 107.063 252.34 106.703 252.659 105.983V100.604H253.924V108H252.721L252.693 107.269ZM258.818 107.104C259.27 107.104 259.664 106.968 260.001 106.694C260.338 106.421 260.525 106.079 260.562 105.669H261.758C261.735 106.093 261.589 106.496 261.32 106.879C261.051 107.262 260.691 107.567 260.24 107.795C259.794 108.023 259.32 108.137 258.818 108.137C257.811 108.137 257.009 107.802 256.412 107.132C255.82 106.457 255.523 105.537 255.523 104.37V104.158C255.523 103.438 255.656 102.798 255.92 102.237C256.184 101.677 256.562 101.242 257.055 100.932C257.551 100.622 258.137 100.467 258.812 100.467C259.641 100.467 260.329 100.715 260.876 101.212C261.427 101.709 261.721 102.354 261.758 103.146H260.562C260.525 102.668 260.343 102.276 260.015 101.971C259.691 101.661 259.29 101.506 258.812 101.506C258.169 101.506 257.67 101.738 257.314 102.203C256.964 102.663 256.788 103.331 256.788 104.206V104.445C256.788 105.298 256.964 105.954 257.314 106.414C257.665 106.874 258.167 107.104 258.818 107.104ZM266.249 108.137C265.246 108.137 264.431 107.809 263.802 107.152C263.173 106.492 262.858 105.61 262.858 104.507V104.274C262.858 103.541 262.997 102.887 263.275 102.312C263.558 101.734 263.95 101.283 264.451 100.959C264.957 100.631 265.504 100.467 266.092 100.467C267.053 100.467 267.801 100.784 268.334 101.417C268.867 102.05 269.134 102.957 269.134 104.138V104.664H264.123C264.141 105.393 264.353 105.983 264.759 106.435C265.169 106.881 265.688 107.104 266.317 107.104C266.764 107.104 267.142 107.013 267.452 106.831C267.762 106.649 268.033 106.407 268.266 106.106L269.038 106.708C268.418 107.66 267.489 108.137 266.249 108.137ZM266.092 101.506C265.581 101.506 265.153 101.693 264.807 102.066C264.46 102.436 264.246 102.955 264.164 103.625H267.869V103.529C267.833 102.887 267.66 102.39 267.35 102.039C267.04 101.684 266.62 101.506 266.092 101.506ZM270.631 107.337C270.631 107.118 270.695 106.936 270.822 106.79C270.954 106.644 271.15 106.571 271.41 106.571C271.67 106.571 271.866 106.644 271.998 106.79C272.135 106.936 272.203 107.118 272.203 107.337C272.203 107.547 272.135 107.722 271.998 107.863C271.866 108.005 271.67 108.075 271.41 108.075C271.15 108.075 270.954 108.005 270.822 107.863C270.695 107.722 270.631 107.547 270.631 107.337Z" fill="#2D3047"/>
<path d="M11 3.5H350C351.933 3.5 353.5 5.067 353.5 7V32.5H7.5V7C7.5 5.067 9.067 3.5 11 3.5Z" fill="white" stroke="#E8E8E8"/>
<path d="M167.641 22H166.164V18.209H162.35V22H160.867V13.4688H162.35V17.0195H166.164V13.4688H167.641V22ZM168.994 18.7715C168.994 18.1504 169.117 17.5918 169.363 17.0957C169.609 16.5957 169.955 16.2129 170.4 15.9473C170.846 15.6777 171.357 15.543 171.936 15.543C172.791 15.543 173.484 15.8184 174.016 16.3691C174.551 16.9199 174.84 17.6504 174.883 18.5605L174.889 18.8945C174.889 19.5195 174.768 20.0781 174.525 20.5703C174.287 21.0625 173.943 21.4434 173.494 21.7129C173.049 21.9824 172.533 22.1172 171.947 22.1172C171.053 22.1172 170.336 21.8203 169.797 21.2266C169.262 20.6289 168.994 19.834 168.994 18.8418V18.7715ZM170.418 18.8945C170.418 19.5469 170.553 20.0586 170.822 20.4297C171.092 20.7969 171.467 20.9805 171.947 20.9805C172.428 20.9805 172.801 20.793 173.066 20.418C173.336 20.043 173.471 19.4941 173.471 18.7715C173.471 18.1309 173.332 17.623 173.055 17.248C172.781 16.873 172.408 16.6855 171.936 16.6855C171.471 16.6855 171.102 16.8711 170.828 17.2422C170.555 17.6094 170.418 18.1602 170.418 18.8945ZM181.645 18.8945C181.645 19.875 181.422 20.6582 180.977 21.2441C180.531 21.8262 179.934 22.1172 179.184 22.1172C178.488 22.1172 177.932 21.8887 177.514 21.4316V24.4375H176.09V15.6602H177.402L177.461 16.3047C177.879 15.7969 178.447 15.543 179.166 15.543C179.939 15.543 180.545 15.832 180.982 16.4102C181.424 16.9844 181.645 17.7832 181.645 18.8066V18.8945ZM180.227 18.7715C180.227 18.1387 180.1 17.6367 179.846 17.2656C179.596 16.8945 179.236 16.709 178.768 16.709C178.186 16.709 177.768 16.9492 177.514 17.4297V20.2422C177.771 20.7344 178.193 20.9805 178.779 20.9805C179.232 20.9805 179.586 20.7988 179.84 20.4355C180.098 20.0684 180.227 19.5137 180.227 18.7715ZM182.588 18.7832C182.588 17.8066 182.814 17.0234 183.268 16.4336C183.721 15.8398 184.328 15.543 185.09 15.543C185.762 15.543 186.305 15.7773 186.719 16.2461V13H188.143V22H186.854L186.783 21.3438C186.357 21.8594 185.789 22.1172 185.078 22.1172C184.336 22.1172 183.734 21.8184 183.273 21.2207C182.816 20.623 182.588 19.8105 182.588 18.7832ZM184.012 18.9062C184.012 19.5508 184.135 20.0547 184.381 20.418C184.631 20.7773 184.984 20.957 185.441 20.957C186.023 20.957 186.449 20.6973 186.719 20.1777V17.4707C186.457 16.9629 186.035 16.709 185.453 16.709C184.992 16.709 184.637 16.8926 184.387 17.2598C184.137 17.623 184.012 18.1719 184.012 18.9062ZM189.361 18.7715C189.361 18.1504 189.484 17.5918 189.73 17.0957C189.977 16.5957 190.322 16.2129 190.768 15.9473C191.213 15.6777 191.725 15.543 192.303 15.543C193.158 15.543 193.852 15.8184 194.383 16.3691C194.918 16.9199 195.207 17.6504 195.25 18.5605L195.256 18.8945C195.256 19.5195 195.135 20.0781 194.893 20.5703C194.654 21.0625 194.311 21.4434 193.861 21.7129C193.416 21.9824 192.9 22.1172 192.314 22.1172C191.42 22.1172 190.703 21.8203 190.164 21.2266C189.629 20.6289 189.361 19.834 189.361 18.8418V18.7715ZM190.785 18.8945C190.785 19.5469 190.92 20.0586 191.189 20.4297C191.459 20.7969 191.834 20.9805 192.314 20.9805C192.795 20.9805 193.168 20.793 193.434 20.418C193.703 20.043 193.838 19.4941 193.838 18.7715C193.838 18.1309 193.699 17.623 193.422 17.248C193.148 16.873 192.775 16.6855 192.303 16.6855C191.838 16.6855 191.469 16.8711 191.195 17.2422C190.922 17.6094 190.785 18.1602 190.785 18.8945ZM196.193 18.7832C196.193 17.8066 196.42 17.0234 196.873 16.4336C197.326 15.8398 197.934 15.543 198.695 15.543C199.367 15.543 199.91 15.7773 200.324 16.2461V13H201.748V22H200.459L200.389 21.3438C199.963 21.8594 199.395 22.1172 198.684 22.1172C197.941 22.1172 197.34 21.8184 196.879 21.2207C196.422 20.623 196.193 19.8105 196.193 18.7832ZM197.617 18.9062C197.617 19.5508 197.74 20.0547 197.986 20.418C198.236 20.7773 198.59 20.957 199.047 20.957C199.629 20.957 200.055 20.6973 200.324 20.1777V17.4707C200.062 16.9629 199.641 16.709 199.059 16.709C198.598 16.709 198.242 16.8926 197.992 17.2598C197.742 17.623 197.617 18.1719 197.617 18.9062ZM202.967 18.7832C202.967 17.8066 203.193 17.0234 203.646 16.4336C204.1 15.8398 204.707 15.543 205.469 15.543C206.141 15.543 206.684 15.7773 207.098 16.2461V13H208.521V22H207.232L207.162 21.3438C206.736 21.8594 206.168 22.1172 205.457 22.1172C204.715 22.1172 204.113 21.8184 203.652 21.2207C203.195 20.623 202.967 19.8105 202.967 18.7832ZM204.391 18.9062C204.391 19.5508 204.514 20.0547 204.76 20.418C205.01 20.7773 205.363 20.957 205.82 20.957C206.402 20.957 206.828 20.6973 207.098 20.1777V17.4707C206.836 16.9629 206.414 16.709 205.832 16.709C205.371 16.709 205.016 16.8926 204.766 17.2598C204.516 17.623 204.391 18.1719 204.391 18.9062ZM212.225 19.9609L213.514 15.6602H215.031L212.512 22.9609C212.125 24.0273 211.469 24.5605 210.543 24.5605C210.336 24.5605 210.107 24.5254 209.857 24.4551V23.3535L210.127 23.3711C210.486 23.3711 210.756 23.3047 210.936 23.1719C211.119 23.043 211.264 22.8242 211.369 22.5156L211.574 21.9707L209.348 15.6602H210.883L212.225 19.9609Z" fill="#2D3047"/>
<circle cx="148" cy="18" r="4" fill="#01D95A"/>
</g>
<path opacity="0.6" d="M37.7412 153.619H42.2598V155H36.0117V145.047H37.7412V153.619ZM46.6826 155.137C45.6299 155.137 44.7754 154.806 44.1191 154.146C43.4674 153.48 43.1416 152.596 43.1416 151.493V151.288C43.1416 150.55 43.2829 149.891 43.5654 149.312C43.8525 148.729 44.2536 148.276 44.7686 147.952C45.2835 147.629 45.8577 147.467 46.4912 147.467C47.4984 147.467 48.2754 147.788 48.8223 148.431C49.3737 149.073 49.6494 149.982 49.6494 151.158V151.828H44.8164C44.8665 152.439 45.0693 152.922 45.4248 153.277C45.7848 153.633 46.236 153.811 46.7783 153.811C47.5394 153.811 48.1592 153.503 48.6377 152.888L49.5332 153.742C49.237 154.184 48.8405 154.528 48.3438 154.774C47.8516 155.016 47.2979 155.137 46.6826 155.137ZM46.4844 148.8C46.0286 148.8 45.6595 148.959 45.377 149.278C45.099 149.597 44.9212 150.042 44.8438 150.611H48.0088V150.488C47.9723 149.932 47.8242 149.513 47.5645 149.23C47.3047 148.943 46.9447 148.8 46.4844 148.8ZM55.0908 152.99C55.0908 152.694 54.9678 152.468 54.7217 152.313C54.4801 152.159 54.0768 152.022 53.5117 151.903C52.9466 151.785 52.4749 151.634 52.0967 151.452C51.2673 151.051 50.8525 150.47 50.8525 149.709C50.8525 149.071 51.1214 148.538 51.6592 148.109C52.1969 147.681 52.8805 147.467 53.71 147.467C54.5941 147.467 55.3073 147.686 55.8496 148.123C56.3965 148.561 56.6699 149.128 56.6699 149.825H55.0088C55.0088 149.506 54.8903 149.242 54.6533 149.032C54.4163 148.818 54.1019 148.711 53.71 148.711C53.3454 148.711 53.0469 148.795 52.8145 148.964C52.5866 149.132 52.4727 149.358 52.4727 149.641C52.4727 149.896 52.5798 150.094 52.7939 150.235C53.0081 150.377 53.4411 150.52 54.0928 150.666C54.7445 150.807 55.2549 150.978 55.624 151.179C55.9977 151.375 56.2734 151.612 56.4512 151.89C56.6335 152.168 56.7246 152.505 56.7246 152.901C56.7246 153.567 56.4489 154.107 55.8975 154.521C55.346 154.932 54.6237 155.137 53.7305 155.137C53.1243 155.137 52.5843 155.027 52.1104 154.809C51.6364 154.59 51.2673 154.289 51.0029 153.906C50.7386 153.523 50.6064 153.111 50.6064 152.669H52.2197C52.2425 153.061 52.3906 153.364 52.6641 153.578C52.9375 153.788 53.2998 153.893 53.751 153.893C54.1885 153.893 54.5212 153.811 54.749 153.646C54.9769 153.478 55.0908 153.259 55.0908 152.99ZM62.3232 152.99C62.3232 152.694 62.2002 152.468 61.9541 152.313C61.7126 152.159 61.3092 152.022 60.7441 151.903C60.179 151.785 59.7074 151.634 59.3291 151.452C58.4997 151.051 58.085 150.47 58.085 149.709C58.085 149.071 58.3538 148.538 58.8916 148.109C59.4294 147.681 60.113 147.467 60.9424 147.467C61.8265 147.467 62.5397 147.686 63.082 148.123C63.6289 148.561 63.9023 149.128 63.9023 149.825H62.2412C62.2412 149.506 62.1227 149.242 61.8857 149.032C61.6488 148.818 61.3343 148.711 60.9424 148.711C60.5778 148.711 60.2793 148.795 60.0469 148.964C59.819 149.132 59.7051 149.358 59.7051 149.641C59.7051 149.896 59.8122 150.094 60.0264 150.235C60.2406 150.377 60.6735 150.52 61.3252 150.666C61.9769 150.807 62.4873 150.978 62.8564 151.179C63.2301 151.375 63.5059 151.612 63.6836 151.89C63.8659 152.168 63.957 152.505 63.957 152.901C63.957 153.567 63.6813 154.107 63.1299 154.521C62.5785 154.932 61.8561 155.137 60.9629 155.137C60.3568 155.137 59.8167 155.027 59.3428 154.809C58.8688 154.59 58.4997 154.289 58.2354 153.906C57.971 153.523 57.8389 153.111 57.8389 152.669H59.4521C59.4749 153.061 59.623 153.364 59.8965 153.578C60.1699 153.788 60.5322 153.893 60.9834 153.893C61.4209 153.893 61.7536 153.811 61.9814 153.646C62.2093 153.478 62.3232 153.259 62.3232 152.99ZM70.9775 145.806V147.604H72.2832V148.834H70.9775V152.963C70.9775 153.245 71.0322 153.451 71.1416 153.578C71.2555 153.701 71.4561 153.763 71.7432 153.763C71.9346 153.763 72.1283 153.74 72.3242 153.694V154.979C71.946 155.084 71.5814 155.137 71.2305 155.137C69.9544 155.137 69.3164 154.433 69.3164 153.024V148.834H68.0996V147.604H69.3164V145.806H70.9775ZM75.1953 148.41C75.7376 147.781 76.4235 147.467 77.2529 147.467C78.8298 147.467 79.6296 148.367 79.6523 150.167V155H77.9912V150.229C77.9912 149.718 77.8796 149.358 77.6562 149.148C77.4375 148.934 77.1139 148.827 76.6855 148.827C76.0202 148.827 75.5234 149.123 75.1953 149.716V155H73.5342V144.5H75.1953V148.41ZM85.7568 155C85.6839 154.859 85.6201 154.629 85.5654 154.31C85.0368 154.861 84.3896 155.137 83.624 155.137C82.8812 155.137 82.2751 154.925 81.8057 154.501C81.3363 154.077 81.1016 153.553 81.1016 152.929C81.1016 152.14 81.3932 151.536 81.9766 151.117C82.5645 150.693 83.403 150.481 84.4922 150.481H85.5107V149.996C85.5107 149.613 85.4036 149.308 85.1895 149.08C84.9753 148.848 84.6494 148.731 84.2119 148.731C83.8337 148.731 83.5238 148.827 83.2822 149.019C83.0407 149.205 82.9199 149.445 82.9199 149.736H81.2588C81.2588 149.331 81.3932 148.952 81.6621 148.602C81.931 148.246 82.2956 147.968 82.7559 147.768C83.2207 147.567 83.738 147.467 84.3076 147.467C85.1735 147.467 85.8639 147.686 86.3789 148.123C86.8939 148.556 87.1582 149.167 87.1719 149.955V153.291C87.1719 153.956 87.2653 154.487 87.4521 154.884V155H85.7568ZM83.9316 153.804C84.2598 153.804 84.5674 153.724 84.8545 153.564C85.1462 153.405 85.3649 153.191 85.5107 152.922V151.527H84.6152C84 151.527 83.5374 151.634 83.2275 151.849C82.9176 152.063 82.7627 152.366 82.7627 152.758C82.7627 153.077 82.8675 153.332 83.0771 153.523C83.2913 153.71 83.5762 153.804 83.9316 153.804ZM90.4531 147.604L90.501 148.458C91.0479 147.797 91.7656 147.467 92.6543 147.467C94.1947 147.467 94.9785 148.349 95.0059 150.112V155H93.3447V150.208C93.3447 149.739 93.2422 149.392 93.0371 149.169C92.8366 148.941 92.5062 148.827 92.0459 148.827C91.376 148.827 90.877 149.13 90.5488 149.736V155H88.8877V147.604H90.4531ZM104.583 155H102.929V147.009L100.488 147.843V146.441L104.371 145.013H104.583V155ZM114.037 145.047L116.908 152.676L119.772 145.047H122.008V155H120.285V151.719L120.456 147.33L117.517 155H116.279L113.347 147.337L113.518 151.719V155H111.795V145.047H114.037ZM125.665 155H124.004V147.604H125.665V155ZM123.901 145.683C123.901 145.427 123.981 145.215 124.141 145.047C124.305 144.878 124.537 144.794 124.838 144.794C125.139 144.794 125.371 144.878 125.535 145.047C125.699 145.215 125.781 145.427 125.781 145.683C125.781 145.933 125.699 146.143 125.535 146.312C125.371 146.476 125.139 146.558 124.838 146.558C124.537 146.558 124.305 146.476 124.141 146.312C123.981 146.143 123.901 145.933 123.901 145.683ZM129.247 155H127.586V144.5H129.247V155ZM134.319 155.137C133.267 155.137 132.412 154.806 131.756 154.146C131.104 153.48 130.778 152.596 130.778 151.493V151.288C130.778 150.55 130.92 149.891 131.202 149.312C131.489 148.729 131.89 148.276 132.405 147.952C132.92 147.629 133.494 147.467 134.128 147.467C135.135 147.467 135.912 147.788 136.459 148.431C137.01 149.073 137.286 149.982 137.286 151.158V151.828H132.453C132.503 152.439 132.706 152.922 133.062 153.277C133.422 153.633 133.873 153.811 134.415 153.811C135.176 153.811 135.796 153.503 136.274 152.888L137.17 153.742C136.874 154.184 136.477 154.528 135.98 154.774C135.488 155.016 134.935 155.137 134.319 155.137ZM134.121 148.8C133.665 148.8 133.296 148.959 133.014 149.278C132.736 149.597 132.558 150.042 132.48 150.611H135.646V150.488C135.609 149.932 135.461 149.513 135.201 149.23C134.941 148.943 134.581 148.8 134.121 148.8ZM146.487 155C146.414 154.859 146.351 154.629 146.296 154.31C145.767 154.861 145.12 155.137 144.354 155.137C143.612 155.137 143.006 154.925 142.536 154.501C142.067 154.077 141.832 153.553 141.832 152.929C141.832 152.14 142.124 151.536 142.707 151.117C143.295 150.693 144.133 150.481 145.223 150.481H146.241V149.996C146.241 149.613 146.134 149.308 145.92 149.08C145.706 148.848 145.38 148.731 144.942 148.731C144.564 148.731 144.254 148.827 144.013 149.019C143.771 149.205 143.65 149.445 143.65 149.736H141.989C141.989 149.331 142.124 148.952 142.393 148.602C142.661 148.246 143.026 147.968 143.486 147.768C143.951 147.567 144.468 147.467 145.038 147.467C145.904 147.467 146.594 147.686 147.109 148.123C147.624 148.556 147.889 149.167 147.902 149.955V153.291C147.902 153.956 147.996 154.487 148.183 154.884V155H146.487ZM144.662 153.804C144.99 153.804 145.298 153.724 145.585 153.564C145.877 153.405 146.095 153.191 146.241 152.922V151.527H145.346C144.73 151.527 144.268 151.634 143.958 151.849C143.648 152.063 143.493 152.366 143.493 152.758C143.493 153.077 143.598 153.332 143.808 153.523C144.022 153.71 144.307 153.804 144.662 153.804ZM156.14 152.71L157.315 147.604H158.936L156.919 155H155.552L153.966 149.921L152.407 155H151.04L149.017 147.604H150.637L151.833 152.655L153.351 147.604H154.602L156.14 152.71ZM164.466 155C164.393 154.859 164.329 154.629 164.274 154.31C163.746 154.861 163.099 155.137 162.333 155.137C161.59 155.137 160.984 154.925 160.515 154.501C160.045 154.077 159.811 153.553 159.811 152.929C159.811 152.14 160.102 151.536 160.686 151.117C161.273 150.693 162.112 150.481 163.201 150.481H164.22V149.996C164.22 149.613 164.113 149.308 163.898 149.08C163.684 148.848 163.358 148.731 162.921 148.731C162.543 148.731 162.233 148.827 161.991 149.019C161.75 149.205 161.629 149.445 161.629 149.736H159.968C159.968 149.331 160.102 148.952 160.371 148.602C160.64 148.246 161.005 147.968 161.465 147.768C161.93 147.567 162.447 147.467 163.017 147.467C163.882 147.467 164.573 147.686 165.088 148.123C165.603 148.556 165.867 149.167 165.881 149.955V153.291C165.881 153.956 165.974 154.487 166.161 154.884V155H164.466ZM162.641 153.804C162.969 153.804 163.276 153.724 163.563 153.564C163.855 153.405 164.074 153.191 164.22 152.922V151.527H163.324C162.709 151.527 162.246 151.634 161.937 151.849C161.627 152.063 161.472 152.366 161.472 152.758C161.472 153.077 161.576 153.332 161.786 153.523C162 153.71 162.285 153.804 162.641 153.804ZM170.099 152.621L171.603 147.604H173.373L170.434 156.121C169.982 157.365 169.217 157.987 168.137 157.987C167.895 157.987 167.629 157.946 167.337 157.864V156.579L167.651 156.6C168.071 156.6 168.385 156.522 168.595 156.367C168.809 156.217 168.978 155.962 169.101 155.602L169.34 154.966L166.742 147.604H168.533L170.099 152.621Z" fill="#2D3047"/>
<path d="M19 140C15.13 140 12 143.13 12 147C12 152.25 19 160 19 160C19 160 26 152.25 26 147C26 143.13 22.87 140 19 140ZM19 149.5C18.337 149.5 17.7011 149.237 17.2322 148.768C16.7634 148.299 16.5 147.663 16.5 147C16.5 146.337 16.7634 145.701 17.2322 145.232C17.7011 144.763 18.337 144.5 19 144.5C19.663 144.5 20.2989 144.763 20.7678 145.232C21.2366 145.701 21.5 146.337 21.5 147C21.5 147.663 21.2366 148.299 20.7678 148.768C20.2989 149.237 19.663 149.5 19 149.5V149.5Z" fill="#E70E02"/>
<defs>
<filter id="filter0_d" x="0" y="0" width="361" height="138" filterUnits="userSpaceOnUse" color-interpolation-filters="sRGB">
<feFlood flood-opacity="0" result="BackgroundImageFix"/>
<feColorMatrix in="SourceAlpha" type="matrix" values="0 0 0 0 0 0 0 0 0 0 0 0 0 0 0 0 0 0 127 0"/>
<feOffset dy="4"/>
<feGaussianBlur stdDeviation="3.5"/>
<feColorMatrix type="matrix" values="0 0 0 0 0 0 0 0 0 0 0 0 0 0 0 0 0 0 0.15 0"/>
<feBlend mode="normal" in2="BackgroundImageFix" result="effect1_dropShadow"/>
<feBlend mode="normal" in="SourceGraphic" in2="effect1_dropShadow" result="shape"/>
</filter>
</defs>
</svg>
